<svg width="1085" height="1536" xmlns="http://www.w3.org/2000/svg" xmlns:xlink="http://www.w3.org/1999/xlink" overflow="hidden"><defs><clipPath id="clip0"><rect x="374" y="897" width="1085" height="1536"/></clipPath><clipPath id="clip1"><rect x="487" y="1468" width="860" height="860"/></clipPath><clipPath id="clip2"><rect x="487" y="1468" width="860" height="860"/></clipPath><clipPath id="clip3"><rect x="487" y="1468" width="860" height="860"/></clipPath><clipPath id="clip4"><rect x="724" y="995" width="404" height="181"/></clipPath><clipPath id="clip5"><rect x="724" y="995" width="404" height="181"/></clipPath><clipPath id="clip6"><rect x="724" y="995" width="404" height="181"/></clipPath></defs><g clip-path="url(#clip0)" transform="translate(-374 -897)"><path d="M386 1013.53C386 949.17 438.17 897 502.525 897L1329.47 897C1393.83 897 1446 949.17 1446 1013.53L1446 2316.47C1446 2380.83 1393.83 2433 1329.47 2433L502.525 2433C438.17 2433 386 2380.83 386 2316.47Z" fill="#FFD000" fill-rule="evenodd"/><path d="M454 1486.38C454 1458.56 476.558 1436 504.384 1436L1328.62 1436C1356.44 1436 1379 1458.56 1379 1486.38L1379 2310.62C1379 2338.44 1356.44 2361 1328.62 2361L504.384 2361C476.558 2361 454 2338.44 454 2310.62Z" fill="#FFFFFF" fill-rule="evenodd"/><g clip-path="url(#clip1)"><g clip-path="url(#clip2)"><g clip-path="url(#clip3)"><path d="M487 1469 1346 1469 1346 2328 487 2328Z" fill="#FFFFFF"/><path d="M487 1469 510.216 1469 510.216 1492.22 487 1492.22Z"/><path d="M510.216 1469 533.432 1469 533.432 1492.22 510.216 1492.22Z"/><path d="M533.432 1469 556.649 1469 556.649 1492.22 533.432 1492.22Z"/><path d="M556.649 1469 579.865 1469 579.865 1492.22 556.649 1492.22Z"/><path d="M579.865 1469 603.081 1469 603.081 1492.22 579.865 1492.22Z"/><path d="M603.081 1469 626.297 1469 626.297 1492.22 603.081 1492.22Z"/><path d="M626.297 1469 649.514 1469 649.514 1492.22 626.297 1492.22Z"/><path d="M695.946 1469 719.162 1469 719.162 1492.22 695.946 1492.22Z"/><path d="M765.595 1469 788.811 1469 788.811 1492.22 765.595 1492.22Z"/><path d="M928.108 1469 951.324 1469 951.324 1492.22 928.108 1492.22Z"/><path d="M997.757 1469 1020.97 1469 1020.97 1492.22 997.757 1492.22Z"/><path d="M1044.19 1469 1067.41 1469 1067.41 1492.22 1044.19 1492.22Z"/><path d="M1067.41 1469 1090.62 1469 1090.62 1492.22 1067.41 1492.22Z"/><path d="M1090.62 1469 1113.84 1469 1113.84 1492.22 1090.62 1492.22Z"/><path d="M1113.84 1469 1137.05 1469 1137.05 1492.22 1113.84 1492.22Z"/><path d="M1137.05 1469 1160.27 1469 1160.27 1492.22 1137.05 1492.22Z"/><path d="M1183.49 1469 1206.7 1469 1206.7 1492.22 1183.49 1492.22Z"/><path d="M1206.7 1469 1229.92 1469 1229.92 1492.22 1206.7 1492.22Z"/><path d="M1229.92 1469 1253.14 1469 1253.14 1492.22 1229.92 1492.22Z"/><path d="M1253.14 1469 1276.35 1469 1276.35 1492.22 1253.14 1492.22Z"/><path d="M1276.35 1469 1299.57 1469 1299.57 1492.22 1276.35 1492.22Z"/><path d="M1299.57 1469 1322.78 1469 1322.78 1492.22 1299.57 1492.22Z"/><path d="M1322.78 1469 1346 1469 1346 1492.22 1322.78 1492.22Z"/><path d="M487 1492.22 510.216 1492.22 510.216 1515.43 487 1515.43Z"/><path d="M626.297 1492.22 649.514 1492.22 649.514 1515.43 626.297 1515.43Z"/><path d="M672.73 1492.22 695.946 1492.22 695.946 1515.43 672.73 1515.43Z"/><path d="M742.378 1492.22 765.595 1492.22 765.595 1515.43 742.378 1515.43Z"/><path d="M765.595 1492.22 788.811 1492.22 788.811 1515.43 765.595 1515.43Z"/><path d="M788.811 1492.22 812.027 1492.22 812.027 1515.43 788.811 1515.43Z"/><path d="M951.324 1492.22 974.541 1492.22 974.541 1515.43 951.324 1515.43Z"/><path d="M974.541 1492.22 997.757 1492.22 997.757 1515.43 974.541 1515.43Z"/><path d="M997.757 1492.22 1020.97 1492.22 1020.97 1515.43 997.757 1515.43Z"/><path d="M1020.97 1492.22 1044.19 1492.22 1044.19 1515.43 1020.97 1515.43Z"/><path d="M1090.62 1492.22 1113.84 1492.22 1113.84 1515.43 1090.62 1515.43Z"/><path d="M1113.84 1492.22 1137.05 1492.22 1137.05 1515.43 1113.84 1515.43Z"/><path d="M1137.05 1492.22 1160.27 1492.22 1160.27 1515.43 1137.05 1515.43Z"/><path d="M1183.49 1492.22 1206.7 1492.22 1206.7 1515.43 1183.49 1515.43Z"/><path d="M1322.78 1492.22 1346 1492.22 1346 1515.43 1322.78 1515.43Z"/><path d="M487 1515.43 510.216 1515.43 510.216 1538.65 487 1538.65Z"/><path d="M533.432 1515.43 556.649 1515.43 556.649 1538.65 533.432 1538.65Z"/><path d="M556.649 1515.43 579.865 1515.43 579.865 1538.65 556.649 1538.65Z"/><path d="M579.865 1515.43 603.081 1515.43 603.081 1538.65 579.865 1538.65Z"/><path d="M626.297 1515.43 649.514 1515.43 649.514 1538.65 626.297 1538.65Z"/><path d="M672.73 1515.43 695.946 1515.43 695.946 1538.65 672.73 1538.65Z"/><path d="M695.946 1515.43 719.162 1515.43 719.162 1538.65 695.946 1538.65Z"/><path d="M719.162 1515.43 742.378 1515.43 742.378 1538.65 719.162 1538.65Z"/><path d="M742.378 1515.43 765.595 1515.43 765.595 1538.65 742.378 1538.65Z"/><path d="M765.595 1515.43 788.811 1515.43 788.811 1538.65 765.595 1538.65Z"/><path d="M835.243 1515.43 858.46 1515.43 858.46 1538.65 835.243 1538.65Z"/><path d="M858.46 1515.43 881.676 1515.43 881.676 1538.65 858.46 1538.65Z"/><path d="M881.676 1515.43 904.892 1515.43 904.892 1538.65 881.676 1538.65Z"/><path d="M904.892 1515.43 928.108 1515.43 928.108 1538.65 904.892 1538.65Z"/><path d="M1020.97 1515.43 1044.19 1515.43 1044.19 1538.65 1020.97 1538.65Z"/><path d="M1044.19 1515.43 1067.41 1515.43 1067.41 1538.65 1044.19 1538.65Z"/><path d="M1090.62 1515.43 1113.84 1515.43 1113.84 1538.65 1090.62 1538.65Z"/><path d="M1137.05 1515.43 1160.27 1515.43 1160.27 1538.65 1137.05 1538.65Z"/><path d="M1183.49 1515.43 1206.7 1515.43 1206.7 1538.65 1183.49 1538.65Z"/><path d="M1229.92 1515.43 1253.14 1515.43 1253.14 1538.65 1229.92 1538.65Z"/><path d="M1253.14 1515.43 1276.35 1515.43 1276.35 1538.65 1253.14 1538.65Z"/><path d="M1276.35 1515.43 1299.57 1515.43 1299.57 1538.65 1276.35 1538.65Z"/><path d="M1322.78 1515.43 1346 1515.43 1346 1538.65 1322.78 1538.65Z"/><path d="M487 1538.65 510.216 1538.65 510.216 1561.86 487 1561.86Z"/><path d="M533.432 1538.65 556.649 1538.65 556.649 1561.86 533.432 1561.86Z"/><path d="M556.649 1538.65 579.865 1538.65 579.865 1561.86 556.649 1561.86Z"/><path d="M579.865 1538.65 603.081 1538.65 603.081 1561.86 579.865 1561.86Z"/><path d="M626.297 1538.65 649.514 1538.65 649.514 1561.86 626.297 1561.86Z"/><path d="M695.946 1538.65 719.162 1538.65 719.162 1561.86 695.946 1561.86Z"/><path d="M719.162 1538.65 742.378 1538.65 742.378 1561.86 719.162 1561.86Z"/><path d="M742.378 1538.65 765.595 1538.65 765.595 1561.86 742.378 1561.86Z"/><path d="M812.027 1538.65 835.243 1538.65 835.243 1561.86 812.027 1561.86Z"/><path d="M881.676 1538.65 904.892 1538.65 904.892 1561.86 881.676 1561.86Z"/><path d="M904.892 1538.65 928.108 1538.65 928.108 1561.86 904.892 1561.86Z"/><path d="M928.108 1538.65 951.324 1538.65 951.324 1561.86 928.108 1561.86Z"/><path d="M951.324 1538.65 974.541 1538.65 974.541 1561.86 951.324 1561.86Z"/><path d="M1183.49 1538.65 1206.7 1538.65 1206.7 1561.86 1183.49 1561.86Z"/><path d="M1229.92 1538.65 1253.14 1538.65 1253.14 1561.86 1229.92 1561.86Z"/><path d="M1253.14 1538.65 1276.35 1538.65 1276.35 1561.86 1253.14 1561.86Z"/><path d="M1276.35 1538.65 1299.57 1538.65 1299.57 1561.86 1276.35 1561.86Z"/><path d="M1322.78 1538.65 1346 1538.65 1346 1561.86 1322.78 1561.86Z"/><path d="M487 1561.86 510.216 1561.86 510.216 1585.08 487 1585.08Z"/><path d="M533.432 1561.86 556.649 1561.86 556.649 1585.08 533.432 1585.08Z"/><path d="M556.649 1561.86 579.865 1561.86 579.865 1585.08 556.649 1585.08Z"/><path d="M579.865 1561.86 603.081 1561.86 603.081 1585.08 579.865 1585.08Z"/><path d="M626.297 1561.86 649.514 1561.86 649.514 1585.08 626.297 1585.08Z"/><path d="M672.73 1561.86 695.946 1561.86 695.946 1585.08 672.73 1585.08Z"/><path d="M835.243 1561.86 858.46 1561.86 858.46 1585.08 835.243 1585.08Z"/><path d="M881.676 1561.86 904.892 1561.86 904.892 1585.08 881.676 1585.08Z"/><path d="M951.324 1561.86 974.541 1561.86 974.541 1585.08 951.324 1585.08Z"/><path d="M1044.19 1561.86 1067.41 1561.86 1067.41 1585.08 1044.19 1585.08Z"/><path d="M1183.49 1561.86 1206.7 1561.86 1206.7 1585.08 1183.49 1585.08Z"/><path d="M1229.92 1561.86 1253.14 1561.86 1253.14 1585.08 1229.92 1585.08Z"/><path d="M1253.14 1561.86 1276.35 1561.86 1276.35 1585.08 1253.14 1585.08Z"/><path d="M1276.35 1561.86 1299.57 1561.86 1299.57 1585.08 1276.35 1585.08Z"/><path d="M1322.78 1561.86 1346 1561.86 1346 1585.08 1322.78 1585.08Z"/><path d="M487 1585.08 510.216 1585.08 510.216 1608.3 487 1608.3Z"/><path d="M626.297 1585.08 649.514 1585.08 649.514 1608.3 626.297 1608.3Z"/><path d="M672.73 1585.08 695.946 1585.08 695.946 1608.3 672.73 1608.3Z"/><path d="M695.946 1585.08 719.162 1585.08 719.162 1608.3 695.946 1608.3Z"/><path d="M742.378 1585.08 765.595 1585.08 765.595 1608.3 742.378 1608.3Z"/><path d="M835.243 1585.08 858.46 1585.08 858.46 1608.3 835.243 1608.3Z"/><path d="M881.676 1585.08 904.892 1585.08 904.892 1608.3 881.676 1608.3Z"/><path d="M928.108 1585.08 951.324 1585.08 951.324 1608.3 928.108 1608.3Z"/><path d="M951.324 1585.08 974.541 1585.08 974.541 1608.3 951.324 1608.3Z"/><path d="M1020.97 1585.08 1044.19 1585.08 1044.19 1608.3 1020.97 1608.3Z"/><path d="M1044.19 1585.08 1067.41 1585.08 1067.41 1608.3 1044.19 1608.3Z"/><path d="M1113.84 1585.08 1137.05 1585.08 1137.05 1608.3 1113.84 1608.3Z"/><path d="M1183.49 1585.08 1206.7 1585.08 1206.7 1608.3 1183.49 1608.3Z"/><path d="M1322.78 1585.08 1346 1585.08 1346 1608.3 1322.78 1608.3Z"/><path d="M487 1608.3 510.216 1608.3 510.216 1631.51 487 1631.51Z"/><path d="M510.216 1608.3 533.432 1608.3 533.432 1631.51 510.216 1631.51Z"/><path d="M533.432 1608.3 556.649 1608.3 556.649 1631.51 533.432 1631.51Z"/><path d="M556.649 1608.3 579.865 1608.3 579.865 1631.51 556.649 1631.51Z"/><path d="M579.865 1608.3 603.081 1608.3 603.081 1631.51 579.865 1631.51Z"/><path d="M603.081 1608.3 626.297 1608.3 626.297 1631.51 603.081 1631.51Z"/><path d="M626.297 1608.3 649.514 1608.3 649.514 1631.51 626.297 1631.51Z"/><path d="M672.73 1608.3 695.946 1608.3 695.946 1631.51 672.73 1631.51Z"/><path d="M719.162 1608.3 742.378 1608.3 742.378 1631.51 719.162 1631.51Z"/><path d="M765.595 1608.3 788.811 1608.3 788.811 1631.51 765.595 1631.51Z"/><path d="M812.027 1608.3 835.243 1608.3 835.243 1631.51 812.027 1631.51Z"/><path d="M858.46 1608.3 881.676 1608.3 881.676 1631.51 858.46 1631.51Z"/><path d="M904.892 1608.3 928.108 1608.3 928.108 1631.51 904.892 1631.51Z"/><path d="M951.324 1608.3 974.541 1608.3 974.541 1631.51 951.324 1631.51Z"/><path d="M997.757 1608.3 1020.97 1608.3 1020.97 1631.51 997.757 1631.51Z"/><path d="M1044.19 1608.3 1067.41 1608.3 1067.41 1631.51 1044.19 1631.51Z"/><path d="M1090.62 1608.3 1113.84 1608.3 1113.84 1631.51 1090.62 1631.51Z"/><path d="M1137.05 1608.3 1160.27 1608.3 1160.27 1631.51 1137.05 1631.51Z"/><path d="M1183.49 1608.3 1206.7 1608.3 1206.7 1631.51 1183.49 1631.51Z"/><path d="M1206.7 1608.3 1229.92 1608.3 1229.92 1631.51 1206.7 1631.51Z"/><path d="M1229.92 1608.3 1253.14 1608.3 1253.14 1631.51 1229.92 1631.51Z"/><path d="M1253.14 1608.3 1276.35 1608.3 1276.35 1631.51 1253.14 1631.51Z"/><path d="M1276.35 1608.3 1299.57 1608.3 1299.57 1631.51 1276.35 1631.51Z"/><path d="M1299.57 1608.3 1322.78 1608.3 1322.78 1631.51 1299.57 1631.51Z"/><path d="M1322.78 1608.3 1346 1608.3 1346 1631.51 1322.78 1631.51Z"/><path d="M672.73 1631.51 695.946 1631.51 695.946 1654.73 672.73 1654.73Z"/><path d="M695.946 1631.51 719.162 1631.51 719.162 1654.73 695.946 1654.73Z"/><path d="M765.595 1631.51 788.811 1631.51 788.811 1654.73 765.595 1654.73Z"/><path d="M812.027 1631.51 835.243 1631.51 835.243 1654.73 812.027 1654.73Z"/><path d="M835.243 1631.51 858.46 1631.51 858.46 1654.73 835.243 1654.73Z"/><path d="M858.46 1631.51 881.676 1631.51 881.676 1654.73 858.46 1654.73Z"/><path d="M881.676 1631.51 904.892 1631.51 904.892 1654.73 881.676 1654.73Z"/><path d="M904.892 1631.51 928.108 1631.51 928.108 1654.73 904.892 1654.73Z"/><path d="M974.541 1631.51 997.757 1631.51 997.757 1654.73 974.541 1654.73Z"/><path d="M997.757 1631.51 1020.97 1631.51 1020.97 1654.73 997.757 1654.73Z"/><path d="M1020.97 1631.51 1044.19 1631.51 1044.19 1654.73 1020.97 1654.73Z"/><path d="M1067.41 1631.51 1090.62 1631.51 1090.62 1654.73 1067.41 1654.73Z"/><path d="M1113.84 1631.51 1137.05 1631.51 1137.05 1654.73 1113.84 1654.73Z"/><path d="M1137.05 1631.51 1160.27 1631.51 1160.27 1654.73 1137.05 1654.73Z"/><path d="M487 1654.73 510.216 1654.73 510.216 1677.95 487 1677.95Z"/><path d="M510.216 1654.73 533.432 1654.73 533.432 1677.95 510.216 1677.95Z"/><path d="M556.649 1654.73 579.865 1654.73 579.865 1677.95 556.649 1677.95Z"/><path d="M626.297 1654.73 649.514 1654.73 649.514 1677.95 626.297 1677.95Z"/><path d="M649.514 1654.73 672.73 1654.73 672.73 1677.95 649.514 1677.95Z"/><path d="M719.162 1654.73 742.378 1654.73 742.378 1677.95 719.162 1677.95Z"/><path d="M812.027 1654.73 835.243 1654.73 835.243 1677.95 812.027 1677.95Z"/><path d="M835.243 1654.73 858.46 1654.73 858.46 1677.95 835.243 1677.95Z"/><path d="M858.46 1654.73 881.676 1654.73 881.676 1677.95 858.46 1677.95Z"/><path d="M881.676 1654.73 904.892 1654.73 904.892 1677.95 881.676 1677.95Z"/><path d="M997.757 1654.73 1020.97 1654.73 1020.97 1677.95 997.757 1677.95Z"/><path d="M1020.97 1654.73 1044.19 1654.73 1044.19 1677.95 1020.97 1677.95Z"/><path d="M1044.19 1654.73 1067.41 1654.73 1067.41 1677.95 1044.19 1677.95Z"/><path d="M1137.05 1654.73 1160.27 1654.73 1160.27 1677.95 1137.05 1677.95Z"/><path d="M1183.49 1654.73 1206.7 1654.73 1206.7 1677.95 1183.49 1677.95Z"/><path d="M1206.7 1654.73 1229.92 1654.73 1229.92 1677.95 1206.7 1677.95Z"/><path d="M1229.92 1654.73 1253.14 1654.73 1253.14 1677.95 1229.92 1677.95Z"/><path d="M1276.35 1654.73 1299.57 1654.73 1299.57 1677.95 1276.35 1677.95Z"/><path d="M1299.57 1654.73 1322.78 1654.73 1322.78 1677.95 1299.57 1677.95Z"/><path d="M487 1677.95 510.216 1677.95 510.216 1701.16 487 1701.16Z"/><path d="M533.432 1677.95 556.649 1677.95 556.649 1701.16 533.432 1701.16Z"/><path d="M556.649 1677.95 579.865 1677.95 579.865 1701.16 556.649 1701.16Z"/><path d="M579.865 1677.95 603.081 1677.95 603.081 1701.16 579.865 1701.16Z"/><path d="M649.514 1677.95 672.73 1677.95 672.73 1701.16 649.514 1701.16Z"/><path d="M672.73 1677.95 695.946 1677.95 695.946 1701.16 672.73 1701.16Z"/><path d="M695.946 1677.95 719.162 1677.95 719.162 1701.16 695.946 1701.16Z"/><path d="M719.162 1677.95 742.378 1677.95 742.378 1701.16 719.162 1701.16Z"/><path d="M742.378 1677.95 765.595 1677.95 765.595 1701.16 742.378 1701.16Z"/><path d="M788.811 1677.95 812.027 1677.95 812.027 1701.16 788.811 1701.16Z"/><path d="M858.46 1677.95 881.676 1677.95 881.676 1701.16 858.46 1701.16Z"/><path d="M928.108 1677.95 951.324 1677.95 951.324 1701.16 928.108 1701.16Z"/><path d="M974.541 1677.95 997.757 1677.95 997.757 1701.16 974.541 1701.16Z"/><path d="M1020.97 1677.95 1044.19 1677.95 1044.19 1701.16 1020.97 1701.16Z"/><path d="M1044.19 1677.95 1067.41 1677.95 1067.41 1701.16 1044.19 1701.16Z"/><path d="M1067.41 1677.95 1090.62 1677.95 1090.62 1701.16 1067.41 1701.16Z"/><path d="M1090.62 1677.95 1113.84 1677.95 1113.84 1701.16 1090.62 1701.16Z"/><path d="M1137.05 1677.95 1160.27 1677.95 1160.27 1701.16 1137.05 1701.16Z"/><path d="M1160.27 1677.95 1183.49 1677.95 1183.49 1701.16 1160.27 1701.16Z"/><path d="M1206.7 1677.95 1229.92 1677.95 1229.92 1701.16 1206.7 1701.16Z"/><path d="M1253.14 1677.95 1276.35 1677.95 1276.35 1701.16 1253.14 1701.16Z"/><path d="M1276.35 1677.95 1299.57 1677.95 1299.57 1701.16 1276.35 1701.16Z"/><path d="M1299.57 1677.95 1322.78 1677.95 1322.78 1701.16 1299.57 1701.16Z"/><path d="M510.216 1701.16 533.432 1701.16 533.432 1724.38 510.216 1724.38Z"/><path d="M533.432 1701.16 556.649 1701.16 556.649 1724.38 533.432 1724.38Z"/><path d="M556.649 1701.16 579.865 1701.16 579.865 1724.38 556.649 1724.38Z"/><path d="M626.297 1701.16 649.514 1701.16 649.514 1724.38 626.297 1724.38Z"/><path d="M672.73 1701.16 695.946 1701.16 695.946 1724.38 672.73 1724.38Z"/><path d="M695.946 1701.16 719.162 1701.16 719.162 1724.38 695.946 1724.38Z"/><path d="M788.811 1701.16 812.027 1701.16 812.027 1724.38 788.811 1724.38Z"/><path d="M812.027 1701.16 835.243 1701.16 835.243 1724.38 812.027 1724.38Z"/><path d="M858.46 1701.16 881.676 1701.16 881.676 1724.38 858.46 1724.38Z"/><path d="M881.676 1701.16 904.892 1701.16 904.892 1724.38 881.676 1724.38Z"/><path d="M904.892 1701.16 928.108 1701.16 928.108 1724.38 904.892 1724.38Z"/><path d="M928.108 1701.16 951.324 1701.16 951.324 1724.38 928.108 1724.38Z"/><path d="M951.324 1701.16 974.541 1701.16 974.541 1724.38 951.324 1724.38Z"/><path d="M974.541 1701.16 997.757 1701.16 997.757 1724.38 974.541 1724.38Z"/><path d="M1020.97 1701.16 1044.19 1701.16 1044.19 1724.38 1020.97 1724.38Z"/><path d="M1044.19 1701.16 1067.41 1701.16 1067.41 1724.38 1044.19 1724.38Z"/><path d="M1090.62 1701.16 1113.84 1701.16 1113.84 1724.38 1090.62 1724.38Z"/><path d="M1137.05 1701.16 1160.27 1701.16 1160.27 1724.38 1137.05 1724.38Z"/><path d="M1183.49 1701.16 1206.7 1701.16 1206.7 1724.38 1183.49 1724.38Z"/><path d="M1206.7 1701.16 1229.92 1701.16 1229.92 1724.38 1206.7 1724.38Z"/><path d="M1229.92 1701.16 1253.14 1701.16 1253.14 1724.38 1229.92 1724.38Z"/><path d="M1322.78 1701.16 1346 1701.16 1346 1724.38 1322.78 1724.38Z"/><path d="M510.216 1724.38 533.432 1724.38 533.432 1747.59 510.216 1747.59Z"/><path d="M556.649 1724.38 579.865 1724.38 579.865 1747.59 556.649 1747.59Z"/><path d="M579.865 1724.38 603.081 1724.38 603.081 1747.59 579.865 1747.59Z"/><path d="M603.081 1724.38 626.297 1724.38 626.297 1747.59 603.081 1747.59Z"/><path d="M649.514 1724.38 672.73 1724.38 672.73 1747.59 649.514 1747.59Z"/><path d="M695.946 1724.38 719.162 1724.38 719.162 1747.59 695.946 1747.59Z"/><path d="M835.243 1724.38 858.46 1724.38 858.46 1747.59 835.243 1747.59Z"/><path d="M858.46 1724.38 881.676 1724.38 881.676 1747.59 858.46 1747.59Z"/><path d="M904.892 1724.38 928.108 1724.38 928.108 1747.59 904.892 1747.59Z"/><path d="M951.324 1724.38 974.541 1724.38 974.541 1747.59 951.324 1747.59Z"/><path d="M997.757 1724.38 1020.97 1724.38 1020.97 1747.59 997.757 1747.59Z"/><path d="M1113.84 1724.38 1137.05 1724.38 1137.05 1747.59 1113.84 1747.59Z"/><path d="M1206.7 1724.38 1229.92 1724.38 1229.92 1747.59 1206.7 1747.59Z"/><path d="M1229.92 1724.38 1253.14 1724.38 1253.14 1747.59 1229.92 1747.59Z"/><path d="M1253.14 1724.38 1276.35 1724.38 1276.35 1747.59 1253.14 1747.59Z"/><path d="M487 1747.59 510.216 1747.59 510.216 1770.81 487 1770.81Z"/><path d="M533.432 1747.59 556.649 1747.59 556.649 1770.81 533.432 1770.81Z"/><path d="M603.081 1747.59 626.297 1747.59 626.297 1770.81 603.081 1770.81Z"/><path d="M626.297 1747.59 649.514 1747.59 649.514 1770.81 626.297 1770.81Z"/><path d="M719.162 1747.59 742.378 1747.59 742.378 1770.81 719.162 1770.81Z"/><path d="M765.595 1747.59 788.811 1747.59 788.811 1770.81 765.595 1770.81Z"/><path d="M788.811 1747.59 812.027 1747.59 812.027 1770.81 788.811 1770.81Z"/><path d="M812.027 1747.59 835.243 1747.59 835.243 1770.81 812.027 1770.81Z"/><path d="M835.243 1747.59 858.46 1747.59 858.46 1770.81 835.243 1770.81Z"/><path d="M858.46 1747.59 881.676 1747.59 881.676 1770.81 858.46 1770.81Z"/><path d="M997.757 1747.59 1020.97 1747.59 1020.97 1770.81 997.757 1770.81Z"/><path d="M1044.19 1747.59 1067.41 1747.59 1067.41 1770.81 1044.19 1770.81Z"/><path d="M1067.41 1747.59 1090.62 1747.59 1090.62 1770.81 1067.41 1770.81Z"/><path d="M1160.27 1747.59 1183.49 1747.59 1183.49 1770.81 1160.27 1770.81Z"/><path d="M1229.92 1747.59 1253.14 1747.59 1253.14 1770.81 1229.92 1770.81Z"/><path d="M1276.35 1747.59 1299.57 1747.59 1299.57 1770.81 1276.35 1770.81Z"/><path d="M1322.78 1747.59 1346 1747.59 1346 1770.81 1322.78 1770.81Z"/><path d="M487 1770.81 510.216 1770.81 510.216 1794.03 487 1794.03Z"/><path d="M510.216 1770.81 533.432 1770.81 533.432 1794.03 510.216 1794.03Z"/><path d="M556.649 1770.81 579.865 1770.81 579.865 1794.03 556.649 1794.03Z"/><path d="M603.081 1770.81 626.297 1770.81 626.297 1794.03 603.081 1794.03Z"/><path d="M672.73 1770.81 695.946 1770.81 695.946 1794.03 672.73 1794.03Z"/><path d="M695.946 1770.81 719.162 1770.81 719.162 1794.03 695.946 1794.03Z"/><path d="M742.378 1770.81 765.595 1770.81 765.595 1794.03 742.378 1794.03Z"/><path d="M765.595 1770.81 788.811 1770.81 788.811 1794.03 765.595 1794.03Z"/><path d="M812.027 1770.81 835.243 1770.81 835.243 1794.03 812.027 1794.03Z"/><path d="M858.46 1770.81 881.676 1770.81 881.676 1794.03 858.46 1794.03Z"/><path d="M881.676 1770.81 904.892 1770.81 904.892 1794.03 881.676 1794.03Z"/><path d="M928.108 1770.81 951.324 1770.81 951.324 1794.03 928.108 1794.03Z"/><path d="M951.324 1770.81 974.541 1770.81 974.541 1794.03 951.324 1794.03Z"/><path d="M974.541 1770.81 997.757 1770.81 997.757 1794.03 974.541 1794.03Z"/><path d="M1020.97 1770.81 1044.19 1770.81 1044.19 1794.03 1020.97 1794.03Z"/><path d="M1090.62 1770.81 1113.84 1770.81 1113.84 1794.03 1090.62 1794.03Z"/><path d="M1113.84 1770.81 1137.05 1770.81 1137.05 1794.03 1113.84 1794.03Z"/><path d="M1137.05 1770.81 1160.27 1770.81 1160.27 1794.03 1137.05 1794.03Z"/><path d="M1160.27 1770.81 1183.49 1770.81 1183.49 1794.03 1160.27 1794.03Z"/><path d="M1253.14 1770.81 1276.35 1770.81 1276.35 1794.03 1253.14 1794.03Z"/><path d="M1276.35 1770.81 1299.57 1770.81 1299.57 1794.03 1276.35 1794.03Z"/><path d="M1299.57 1770.81 1322.78 1770.81 1322.78 1794.03 1299.57 1794.03Z"/><path d="M533.432 1794.03 556.649 1794.03 556.649 1817.24 533.432 1817.24Z"/><path d="M603.081 1794.03 626.297 1794.03 626.297 1817.24 603.081 1817.24Z"/><path d="M626.297 1794.03 649.514 1794.03 649.514 1817.24 626.297 1817.24Z"/><path d="M649.514 1794.03 672.73 1794.03 672.73 1817.24 649.514 1817.24Z"/><path d="M672.73 1794.03 695.946 1794.03 695.946 1817.24 672.73 1817.24Z"/><path d="M765.595 1794.03 788.811 1794.03 788.811 1817.24 765.595 1817.24Z"/><path d="M788.811 1794.03 812.027 1794.03 812.027 1817.24 788.811 1817.24Z"/><path d="M858.46 1794.03 881.676 1794.03 881.676 1817.24 858.46 1817.24Z"/><path d="M881.676 1794.03 904.892 1794.03 904.892 1817.24 881.676 1817.24Z"/><path d="M904.892 1794.03 928.108 1794.03 928.108 1817.24 904.892 1817.24Z"/><path d="M997.757 1794.03 1020.97 1794.03 1020.97 1817.24 997.757 1817.24Z"/><path d="M1020.97 1794.03 1044.19 1794.03 1044.19 1817.24 1020.97 1817.24Z"/><path d="M1044.19 1794.03 1067.41 1794.03 1067.41 1817.24 1044.19 1817.24Z"/><path d="M1090.62 1794.03 1113.84 1794.03 1113.84 1817.24 1090.62 1817.24Z"/><path d="M1160.27 1794.03 1183.49 1794.03 1183.49 1817.24 1160.27 1817.24Z"/><path d="M1183.49 1794.03 1206.7 1794.03 1206.7 1817.24 1183.49 1817.24Z"/><path d="M1299.57 1794.03 1322.78 1794.03 1322.78 1817.24 1299.57 1817.24Z"/><path d="M510.216 1817.24 533.432 1817.24 533.432 1840.46 510.216 1840.46Z"/><path d="M556.649 1817.24 579.865 1817.24 579.865 1840.46 556.649 1840.46Z"/><path d="M719.162 1817.24 742.378 1817.24 742.378 1840.46 719.162 1840.46Z"/><path d="M765.595 1817.24 788.811 1817.24 788.811 1840.46 765.595 1840.46Z"/><path d="M788.811 1817.24 812.027 1817.24 812.027 1840.46 788.811 1840.46Z"/><path d="M881.676 1817.24 904.892 1817.24 904.892 1840.46 881.676 1840.46Z"/><path d="M928.108 1817.24 951.324 1817.24 951.324 1840.46 928.108 1840.46Z"/><path d="M1067.41 1817.24 1090.62 1817.24 1090.62 1840.46 1067.41 1840.46Z"/><path d="M1090.62 1817.24 1113.84 1817.24 1113.84 1840.46 1090.62 1840.46Z"/><path d="M1137.05 1817.24 1160.27 1817.24 1160.27 1840.46 1137.05 1840.46Z"/><path d="M1160.27 1817.24 1183.49 1817.24 1183.49 1840.46 1160.27 1840.46Z"/><path d="M1206.7 1817.24 1229.92 1817.24 1229.92 1840.46 1206.7 1840.46Z"/><path d="M1253.14 1817.24 1276.35 1817.24 1276.35 1840.46 1253.14 1840.46Z"/><path d="M1299.57 1817.24 1322.78 1817.24 1322.78 1840.46 1299.57 1840.46Z"/><path d="M487 1840.46 510.216 1840.46 510.216 1863.68 487 1863.68Z"/><path d="M510.216 1840.46 533.432 1840.46 533.432 1863.68 510.216 1863.68Z"/><path d="M579.865 1840.46 603.081 1840.46 603.081 1863.68 579.865 1863.68Z"/><path d="M603.081 1840.46 626.297 1840.46 626.297 1863.68 603.081 1863.68Z"/><path d="M626.297 1840.46 649.514 1840.46 649.514 1863.68 626.297 1863.68Z"/><path d="M649.514 1840.46 672.73 1840.46 672.73 1863.68 649.514 1863.68Z"/><path d="M695.946 1840.46 719.162 1840.46 719.162 1863.68 695.946 1863.68Z"/><path d="M742.378 1840.46 765.595 1840.46 765.595 1863.68 742.378 1863.68Z"/><path d="M765.595 1840.46 788.811 1840.46 788.811 1863.68 765.595 1863.68Z"/><path d="M788.811 1840.46 812.027 1840.46 812.027 1863.68 788.811 1863.68Z"/><path d="M812.027 1840.46 835.243 1840.46 835.243 1863.68 812.027 1863.68Z"/><path d="M881.676 1840.46 904.892 1840.46 904.892 1863.68 881.676 1863.68Z"/><path d="M928.108 1840.46 951.324 1840.46 951.324 1863.68 928.108 1863.68Z"/><path d="M951.324 1840.46 974.541 1840.46 974.541 1863.68 951.324 1863.68Z"/><path d="M974.541 1840.46 997.757 1840.46 997.757 1863.68 974.541 1863.68Z"/><path d="M1044.19 1840.46 1067.41 1840.46 1067.41 1863.68 1044.19 1863.68Z"/><path d="M1067.41 1840.46 1090.62 1840.46 1090.62 1863.68 1067.41 1863.68Z"/><path d="M1090.62 1840.46 1113.84 1840.46 1113.84 1863.68 1090.62 1863.68Z"/><path d="M1113.84 1840.46 1137.05 1840.46 1137.05 1863.68 1113.84 1863.68Z"/><path d="M1160.27 1840.46 1183.49 1840.46 1183.49 1863.68 1160.27 1863.68Z"/><path d="M1206.7 1840.46 1229.92 1840.46 1229.92 1863.68 1206.7 1863.68Z"/><path d="M1229.92 1840.46 1253.14 1840.46 1253.14 1863.68 1229.92 1863.68Z"/><path d="M1322.78 1840.46 1346 1840.46 1346 1863.68 1322.78 1863.68Z"/><path d="M533.432 1863.68 556.649 1863.68 556.649 1886.89 533.432 1886.89Z"/><path d="M556.649 1863.68 579.865 1863.68 579.865 1886.89 556.649 1886.89Z"/><path d="M603.081 1863.68 626.297 1863.68 626.297 1886.89 603.081 1886.89Z"/><path d="M672.73 1863.68 695.946 1863.68 695.946 1886.89 672.73 1886.89Z"/><path d="M695.946 1863.68 719.162 1863.68 719.162 1886.89 695.946 1886.89Z"/><path d="M904.892 1863.68 928.108 1863.68 928.108 1886.89 904.892 1886.89Z"/><path d="M928.108 1863.68 951.324 1863.68 951.324 1886.89 928.108 1886.89Z"/><path d="M951.324 1863.68 974.541 1863.68 974.541 1886.89 951.324 1886.89Z"/><path d="M997.757 1863.68 1020.97 1863.68 1020.97 1886.89 997.757 1886.89Z"/><path d="M1137.05 1863.68 1160.27 1863.68 1160.27 1886.89 1137.05 1886.89Z"/><path d="M1206.7 1863.68 1229.92 1863.68 1229.92 1886.89 1206.7 1886.89Z"/><path d="M1229.92 1863.68 1253.14 1863.68 1253.14 1886.89 1229.92 1886.89Z"/><path d="M510.216 1886.89 533.432 1886.89 533.432 1910.11 510.216 1910.11Z"/><path d="M603.081 1886.89 626.297 1886.89 626.297 1910.11 603.081 1910.11Z"/><path d="M626.297 1886.89 649.514 1886.89 649.514 1910.11 626.297 1910.11Z"/><path d="M765.595 1886.89 788.811 1886.89 788.811 1910.11 765.595 1910.11Z"/><path d="M858.46 1886.89 881.676 1886.89 881.676 1910.11 858.46 1910.11Z"/><path d="M904.892 1886.89 928.108 1886.89 928.108 1910.11 904.892 1910.11Z"/><path d="M951.324 1886.89 974.541 1886.89 974.541 1910.11 951.324 1910.11Z"/><path d="M997.757 1886.89 1020.97 1886.89 1020.97 1910.11 997.757 1910.11Z"/><path d="M1020.97 1886.89 1044.19 1886.89 1044.19 1910.11 1020.97 1910.11Z"/><path d="M1044.19 1886.89 1067.41 1886.89 1067.41 1910.11 1044.19 1910.11Z"/><path d="M1090.62 1886.89 1113.84 1886.89 1113.84 1910.11 1090.62 1910.11Z"/><path d="M1229.92 1886.89 1253.14 1886.89 1253.14 1910.11 1229.92 1910.11Z"/><path d="M1253.14 1886.89 1276.35 1886.89 1276.35 1910.11 1253.14 1910.11Z"/><path d="M1276.35 1886.89 1299.57 1886.89 1299.57 1910.11 1276.35 1910.11Z"/><path d="M1322.78 1886.89 1346 1886.89 1346 1910.11 1322.78 1910.11Z"/><path d="M487 1910.11 510.216 1910.11 510.216 1933.32 487 1933.32Z"/><path d="M510.216 1910.11 533.432 1910.11 533.432 1933.32 510.216 1933.32Z"/><path d="M556.649 1910.11 579.865 1910.11 579.865 1933.32 556.649 1933.32Z"/><path d="M603.081 1910.11 626.297 1910.11 626.297 1933.32 603.081 1933.32Z"/><path d="M672.73 1910.11 695.946 1910.11 695.946 1933.32 672.73 1933.32Z"/><path d="M695.946 1910.11 719.162 1910.11 719.162 1933.32 695.946 1933.32Z"/><path d="M719.162 1910.11 742.378 1910.11 742.378 1933.32 719.162 1933.32Z"/><path d="M742.378 1910.11 765.595 1910.11 765.595 1933.32 742.378 1933.32Z"/><path d="M997.757 1910.11 1020.97 1910.11 1020.97 1933.32 997.757 1933.32Z"/><path d="M1067.41 1910.11 1090.62 1910.11 1090.62 1933.32 1067.41 1933.32Z"/><path d="M1090.62 1910.11 1113.84 1910.11 1113.84 1933.32 1090.62 1933.32Z"/><path d="M1113.84 1910.11 1137.05 1910.11 1137.05 1933.32 1113.84 1933.32Z"/><path d="M1137.05 1910.11 1160.27 1910.11 1160.27 1933.32 1137.05 1933.32Z"/><path d="M1160.27 1910.11 1183.49 1910.11 1183.49 1933.32 1160.27 1933.32Z"/><path d="M1299.57 1910.11 1322.78 1910.11 1322.78 1933.32 1299.57 1933.32Z"/><path d="M487 1933.32 510.216 1933.32 510.216 1956.54 487 1956.54Z"/><path d="M510.216 1933.32 533.432 1933.32 533.432 1956.54 510.216 1956.54Z"/><path d="M533.432 1933.32 556.649 1933.32 556.649 1956.54 533.432 1956.54Z"/><path d="M579.865 1933.32 603.081 1933.32 603.081 1956.54 579.865 1956.54Z"/><path d="M603.081 1933.32 626.297 1933.32 626.297 1956.54 603.081 1956.54Z"/><path d="M626.297 1933.32 649.514 1933.32 649.514 1956.54 626.297 1956.54Z"/><path d="M695.946 1933.32 719.162 1933.32 719.162 1956.54 695.946 1956.54Z"/><path d="M719.162 1933.32 742.378 1933.32 742.378 1956.54 719.162 1956.54Z"/><path d="M742.378 1933.32 765.595 1933.32 765.595 1956.54 742.378 1956.54Z"/><path d="M765.595 1933.32 788.811 1933.32 788.811 1956.54 765.595 1956.54Z"/><path d="M835.243 1933.32 858.46 1933.32 858.46 1956.54 835.243 1956.54Z"/><path d="M858.46 1933.32 881.676 1933.32 881.676 1956.54 858.46 1956.54Z"/><path d="M904.892 1933.32 928.108 1933.32 928.108 1956.54 904.892 1956.54Z"/><path d="M997.757 1933.32 1020.97 1933.32 1020.97 1956.54 997.757 1956.54Z"/><path d="M1020.97 1933.32 1044.19 1933.32 1044.19 1956.54 1020.97 1956.54Z"/><path d="M1044.19 1933.32 1067.41 1933.32 1067.41 1956.54 1044.19 1956.54Z"/><path d="M1113.84 1933.32 1137.05 1933.32 1137.05 1956.54 1113.84 1956.54Z"/><path d="M1137.05 1933.32 1160.27 1933.32 1160.27 1956.54 1137.05 1956.54Z"/><path d="M1160.27 1933.32 1183.49 1933.32 1183.49 1956.54 1160.27 1956.54Z"/><path d="M1183.49 1933.32 1206.7 1933.32 1206.7 1956.54 1183.49 1956.54Z"/><path d="M1276.35 1933.32 1299.57 1933.32 1299.57 1956.54 1276.35 1956.54Z"/><path d="M1322.78 1933.32 1346 1933.32 1346 1956.54 1322.78 1956.54Z"/><path d="M510.216 1956.54 533.432 1956.54 533.432 1979.76 510.216 1979.76Z"/><path d="M533.432 1956.54 556.649 1956.54 556.649 1979.76 533.432 1979.76Z"/><path d="M556.649 1956.54 579.865 1956.54 579.865 1979.76 556.649 1979.76Z"/><path d="M603.081 1956.54 626.297 1956.54 626.297 1979.76 603.081 1979.76Z"/><path d="M649.514 1956.54 672.73 1956.54 672.73 1979.76 649.514 1979.76Z"/><path d="M695.946 1956.54 719.162 1956.54 719.162 1979.76 695.946 1979.76Z"/><path d="M719.162 1956.54 742.378 1956.54 742.378 1979.76 719.162 1979.76Z"/><path d="M742.378 1956.54 765.595 1956.54 765.595 1979.76 742.378 1979.76Z"/><path d="M788.811 1956.54 812.027 1956.54 812.027 1979.76 788.811 1979.76Z"/><path d="M858.46 1956.54 881.676 1956.54 881.676 1979.76 858.46 1979.76Z"/><path d="M904.892 1956.54 928.108 1956.54 928.108 1979.76 904.892 1979.76Z"/><path d="M928.108 1956.54 951.324 1956.54 951.324 1979.76 928.108 1979.76Z"/><path d="M974.541 1956.54 997.757 1956.54 997.757 1979.76 974.541 1979.76Z"/><path d="M1044.19 1956.54 1067.41 1956.54 1067.41 1979.76 1044.19 1979.76Z"/><path d="M1067.41 1956.54 1090.62 1956.54 1090.62 1979.76 1067.41 1979.76Z"/><path d="M1113.84 1956.54 1137.05 1956.54 1137.05 1979.76 1113.84 1979.76Z"/><path d="M1137.05 1956.54 1160.27 1956.54 1160.27 1979.76 1137.05 1979.76Z"/><path d="M1160.27 1956.54 1183.49 1956.54 1183.49 1979.76 1160.27 1979.76Z"/><path d="M1206.7 1956.54 1229.92 1956.54 1229.92 1979.76 1206.7 1979.76Z"/><path d="M1229.92 1956.54 1253.14 1956.54 1253.14 1979.76 1229.92 1979.76Z"/><path d="M1253.14 1956.54 1276.35 1956.54 1276.35 1979.76 1253.14 1979.76Z"/><path d="M1299.57 1956.54 1322.78 1956.54 1322.78 1979.76 1299.57 1979.76Z"/><path d="M510.216 1979.76 533.432 1979.76 533.432 2002.97 510.216 2002.97Z"/><path d="M579.865 1979.76 603.081 1979.76 603.081 2002.97 579.865 2002.97Z"/><path d="M626.297 1979.76 649.514 1979.76 649.514 2002.97 626.297 2002.97Z"/><path d="M649.514 1979.76 672.73 1979.76 672.73 2002.97 649.514 2002.97Z"/><path d="M719.162 1979.76 742.378 1979.76 742.378 2002.97 719.162 2002.97Z"/><path d="M742.378 1979.76 765.595 1979.76 765.595 2002.97 742.378 2002.97Z"/><path d="M765.595 1979.76 788.811 1979.76 788.811 2002.97 765.595 2002.97Z"/><path d="M788.811 1979.76 812.027 1979.76 812.027 2002.97 788.811 2002.97Z"/><path d="M812.027 1979.76 835.243 1979.76 835.243 2002.97 812.027 2002.97Z"/><path d="M835.243 1979.76 858.46 1979.76 858.46 2002.97 835.243 2002.97Z"/><path d="M881.676 1979.76 904.892 1979.76 904.892 2002.97 881.676 2002.97Z"/><path d="M928.108 1979.76 951.324 1979.76 951.324 2002.97 928.108 2002.97Z"/><path d="M951.324 1979.76 974.541 1979.76 974.541 2002.97 951.324 2002.97Z"/><path d="M974.541 1979.76 997.757 1979.76 997.757 2002.97 974.541 2002.97Z"/><path d="M997.757 1979.76 1020.97 1979.76 1020.97 2002.97 997.757 2002.97Z"/><path d="M1067.41 1979.76 1090.62 1979.76 1090.62 2002.97 1067.41 2002.97Z"/><path d="M1090.62 1979.76 1113.84 1979.76 1113.84 2002.97 1090.62 2002.97Z"/><path d="M1137.05 1979.76 1160.27 1979.76 1160.27 2002.97 1137.05 2002.97Z"/><path d="M1183.49 1979.76 1206.7 1979.76 1206.7 2002.97 1183.49 2002.97Z"/><path d="M1206.7 1979.76 1229.92 1979.76 1229.92 2002.97 1206.7 2002.97Z"/><path d="M1229.92 1979.76 1253.14 1979.76 1253.14 2002.97 1229.92 2002.97Z"/><path d="M1253.14 1979.76 1276.35 1979.76 1276.35 2002.97 1253.14 2002.97Z"/><path d="M1322.78 1979.76 1346 1979.76 1346 2002.97 1322.78 2002.97Z"/><path d="M487 2002.97 510.216 2002.97 510.216 2026.19 487 2026.19Z"/><path d="M510.216 2002.97 533.432 2002.97 533.432 2026.19 510.216 2026.19Z"/><path d="M556.649 2002.97 579.865 2002.97 579.865 2026.19 556.649 2026.19Z"/><path d="M579.865 2002.97 603.081 2002.97 603.081 2026.19 579.865 2026.19Z"/><path d="M603.081 2002.97 626.297 2002.97 626.297 2026.19 603.081 2026.19Z"/><path d="M672.73 2002.97 695.946 2002.97 695.946 2026.19 672.73 2026.19Z"/><path d="M695.946 2002.97 719.162 2002.97 719.162 2026.19 695.946 2026.19Z"/><path d="M719.162 2002.97 742.378 2002.97 742.378 2026.19 719.162 2026.19Z"/><path d="M812.027 2002.97 835.243 2002.97 835.243 2026.19 812.027 2026.19Z"/><path d="M881.676 2002.97 904.892 2002.97 904.892 2026.19 881.676 2026.19Z"/><path d="M904.892 2002.97 928.108 2002.97 928.108 2026.19 904.892 2026.19Z"/><path d="M928.108 2002.97 951.324 2002.97 951.324 2026.19 928.108 2026.19Z"/><path d="M951.324 2002.97 974.541 2002.97 974.541 2026.19 951.324 2026.19Z"/><path d="M974.541 2002.97 997.757 2002.97 997.757 2026.19 974.541 2026.19Z"/><path d="M1067.41 2002.97 1090.62 2002.97 1090.62 2026.19 1067.41 2026.19Z"/><path d="M1137.05 2002.97 1160.27 2002.97 1160.27 2026.19 1137.05 2026.19Z"/><path d="M1206.7 2002.97 1229.92 2002.97 1229.92 2026.19 1206.7 2026.19Z"/><path d="M1229.92 2002.97 1253.14 2002.97 1253.14 2026.19 1229.92 2026.19Z"/><path d="M1253.14 2002.97 1276.35 2002.97 1276.35 2026.19 1253.14 2026.19Z"/><path d="M1276.35 2002.97 1299.57 2002.97 1299.57 2026.19 1276.35 2026.19Z"/><path d="M510.216 2026.19 533.432 2026.19 533.432 2049.41 510.216 2049.41Z"/><path d="M556.649 2026.19 579.865 2026.19 579.865 2049.41 556.649 2049.41Z"/><path d="M579.865 2026.19 603.081 2026.19 603.081 2049.41 579.865 2049.41Z"/><path d="M626.297 2026.19 649.514 2026.19 649.514 2049.41 626.297 2049.41Z"/><path d="M649.514 2026.19 672.73 2026.19 672.73 2049.41 649.514 2049.41Z"/><path d="M719.162 2026.19 742.378 2026.19 742.378 2049.41 719.162 2049.41Z"/><path d="M742.378 2026.19 765.595 2026.19 765.595 2049.41 742.378 2049.41Z"/><path d="M788.811 2026.19 812.027 2026.19 812.027 2049.41 788.811 2049.41Z"/><path d="M812.027 2026.19 835.243 2026.19 835.243 2049.41 812.027 2049.41Z"/><path d="M858.46 2026.19 881.676 2026.19 881.676 2049.41 858.46 2049.41Z"/><path d="M881.676 2026.19 904.892 2026.19 904.892 2049.41 881.676 2049.41Z"/><path d="M951.324 2026.19 974.541 2026.19 974.541 2049.41 951.324 2049.41Z"/><path d="M974.541 2026.19 997.757 2026.19 997.757 2049.41 974.541 2049.41Z"/><path d="M997.757 2026.19 1020.97 2026.19 1020.97 2049.41 997.757 2049.41Z"/><path d="M1067.41 2026.19 1090.62 2026.19 1090.62 2049.41 1067.41 2049.41Z"/><path d="M1137.05 2026.19 1160.27 2026.19 1160.27 2049.41 1137.05 2049.41Z"/><path d="M1183.49 2026.19 1206.7 2026.19 1206.7 2049.41 1183.49 2049.41Z"/><path d="M1206.7 2026.19 1229.92 2026.19 1229.92 2049.41 1206.7 2049.41Z"/><path d="M1276.35 2026.19 1299.57 2026.19 1299.57 2049.41 1276.35 2049.41Z"/><path d="M1322.78 2026.19 1346 2026.19 1346 2049.41 1322.78 2049.41Z"/><path d="M533.432 2049.41 556.649 2049.41 556.649 2072.62 533.432 2072.62Z"/><path d="M556.649 2049.41 579.865 2049.41 579.865 2072.62 556.649 2072.62Z"/><path d="M603.081 2049.41 626.297 2049.41 626.297 2072.62 603.081 2072.62Z"/><path d="M695.946 2049.41 719.162 2049.41 719.162 2072.62 695.946 2072.62Z"/><path d="M719.162 2049.41 742.378 2049.41 742.378 2072.62 719.162 2072.62Z"/><path d="M765.595 2049.41 788.811 2049.41 788.811 2072.62 765.595 2072.62Z"/><path d="M835.243 2049.41 858.46 2049.41 858.46 2072.62 835.243 2072.62Z"/><path d="M881.676 2049.41 904.892 2049.41 904.892 2072.62 881.676 2072.62Z"/><path d="M974.541 2049.41 997.757 2049.41 997.757 2072.62 974.541 2072.62Z"/><path d="M997.757 2049.41 1020.97 2049.41 1020.97 2072.62 997.757 2072.62Z"/><path d="M1020.97 2049.41 1044.19 2049.41 1044.19 2072.62 1020.97 2072.62Z"/><path d="M1090.62 2049.41 1113.84 2049.41 1113.84 2072.62 1090.62 2072.62Z"/><path d="M1113.84 2049.41 1137.05 2049.41 1137.05 2072.62 1113.84 2072.62Z"/><path d="M1137.05 2049.41 1160.27 2049.41 1160.27 2072.62 1137.05 2072.62Z"/><path d="M1160.27 2049.41 1183.49 2049.41 1183.49 2072.62 1160.27 2072.62Z"/><path d="M1206.7 2049.41 1229.92 2049.41 1229.92 2072.62 1206.7 2072.62Z"/><path d="M1253.14 2049.41 1276.35 2049.41 1276.35 2072.62 1253.14 2072.62Z"/><path d="M1276.35 2049.41 1299.57 2049.41 1299.57 2072.62 1276.35 2072.62Z"/><path d="M1299.57 2049.41 1322.78 2049.41 1322.78 2072.62 1299.57 2072.62Z"/><path d="M487 2072.62 510.216 2072.62 510.216 2095.84 487 2095.84Z"/><path d="M533.432 2072.62 556.649 2072.62 556.649 2095.84 533.432 2095.84Z"/><path d="M603.081 2072.62 626.297 2072.62 626.297 2095.84 603.081 2095.84Z"/><path d="M626.297 2072.62 649.514 2072.62 649.514 2095.84 626.297 2095.84Z"/><path d="M649.514 2072.62 672.73 2072.62 672.73 2095.84 649.514 2095.84Z"/><path d="M695.946 2072.62 719.162 2072.62 719.162 2095.84 695.946 2095.84Z"/><path d="M719.162 2072.62 742.378 2072.62 742.378 2095.84 719.162 2095.84Z"/><path d="M765.595 2072.62 788.811 2072.62 788.811 2095.84 765.595 2095.84Z"/><path d="M835.243 2072.62 858.46 2072.62 858.46 2095.84 835.243 2095.84Z"/><path d="M858.46 2072.62 881.676 2072.62 881.676 2095.84 858.46 2095.84Z"/><path d="M997.757 2072.62 1020.97 2072.62 1020.97 2095.84 997.757 2095.84Z"/><path d="M1113.84 2072.62 1137.05 2072.62 1137.05 2095.84 1113.84 2095.84Z"/><path d="M1160.27 2072.62 1183.49 2072.62 1183.49 2095.84 1160.27 2095.84Z"/><path d="M1183.49 2072.62 1206.7 2072.62 1206.7 2095.84 1183.49 2095.84Z"/><path d="M1229.92 2072.62 1253.14 2072.62 1253.14 2095.84 1229.92 2095.84Z"/><path d="M1276.35 2072.62 1299.57 2072.62 1299.57 2095.84 1276.35 2095.84Z"/><path d="M1299.57 2072.62 1322.78 2072.62 1322.78 2095.84 1299.57 2095.84Z"/><path d="M1322.78 2072.62 1346 2072.62 1346 2095.84 1322.78 2095.84Z"/><path d="M510.216 2095.84 533.432 2095.84 533.432 2119.05 510.216 2119.05Z"/><path d="M579.865 2095.84 603.081 2095.84 603.081 2119.05 579.865 2119.05Z"/><path d="M603.081 2095.84 626.297 2095.84 626.297 2119.05 603.081 2119.05Z"/><path d="M672.73 2095.84 695.946 2095.84 695.946 2119.05 672.73 2119.05Z"/><path d="M742.378 2095.84 765.595 2095.84 765.595 2119.05 742.378 2119.05Z"/><path d="M765.595 2095.84 788.811 2095.84 788.811 2119.05 765.595 2119.05Z"/><path d="M788.811 2095.84 812.027 2095.84 812.027 2119.05 788.811 2119.05Z"/><path d="M835.243 2095.84 858.46 2095.84 858.46 2119.05 835.243 2119.05Z"/><path d="M881.676 2095.84 904.892 2095.84 904.892 2119.05 881.676 2119.05Z"/><path d="M928.108 2095.84 951.324 2095.84 951.324 2119.05 928.108 2119.05Z"/><path d="M951.324 2095.84 974.541 2095.84 974.541 2119.05 951.324 2119.05Z"/><path d="M974.541 2095.84 997.757 2095.84 997.757 2119.05 974.541 2119.05Z"/><path d="M997.757 2095.84 1020.97 2095.84 1020.97 2119.05 997.757 2119.05Z"/><path d="M1020.97 2095.84 1044.19 2095.84 1044.19 2119.05 1020.97 2119.05Z"/><path d="M1067.41 2095.84 1090.62 2095.84 1090.62 2119.05 1067.41 2119.05Z"/><path d="M1113.84 2095.84 1137.05 2095.84 1137.05 2119.05 1113.84 2119.05Z"/><path d="M1160.27 2095.84 1183.49 2095.84 1183.49 2119.05 1160.27 2119.05Z"/><path d="M1206.7 2095.84 1229.92 2095.84 1229.92 2119.05 1206.7 2119.05Z"/><path d="M1253.14 2095.84 1276.35 2095.84 1276.35 2119.05 1253.14 2119.05Z"/><path d="M1276.35 2095.84 1299.57 2095.84 1299.57 2119.05 1276.35 2119.05Z"/><path d="M1299.57 2095.84 1322.78 2095.84 1322.78 2119.05 1299.57 2119.05Z"/><path d="M487 2119.05 510.216 2119.05 510.216 2142.27 487 2142.27Z"/><path d="M510.216 2119.05 533.432 2119.05 533.432 2142.27 510.216 2142.27Z"/><path d="M626.297 2119.05 649.514 2119.05 649.514 2142.27 626.297 2142.27Z"/><path d="M719.162 2119.05 742.378 2119.05 742.378 2142.27 719.162 2142.27Z"/><path d="M742.378 2119.05 765.595 2119.05 765.595 2142.27 742.378 2142.27Z"/><path d="M765.595 2119.05 788.811 2119.05 788.811 2142.27 765.595 2142.27Z"/><path d="M788.811 2119.05 812.027 2119.05 812.027 2142.27 788.811 2142.27Z"/><path d="M812.027 2119.05 835.243 2119.05 835.243 2142.27 812.027 2142.27Z"/><path d="M928.108 2119.05 951.324 2119.05 951.324 2142.27 928.108 2142.27Z"/><path d="M951.324 2119.05 974.541 2119.05 974.541 2142.27 951.324 2142.27Z"/><path d="M1044.19 2119.05 1067.41 2119.05 1067.41 2142.27 1044.19 2142.27Z"/><path d="M1090.62 2119.05 1113.84 2119.05 1113.84 2142.27 1090.62 2142.27Z"/><path d="M1137.05 2119.05 1160.27 2119.05 1160.27 2142.27 1137.05 2142.27Z"/><path d="M1160.27 2119.05 1183.49 2119.05 1183.49 2142.27 1160.27 2142.27Z"/><path d="M1183.49 2119.05 1206.7 2119.05 1206.7 2142.27 1183.49 2142.27Z"/><path d="M1206.7 2119.05 1229.92 2119.05 1229.92 2142.27 1206.7 2142.27Z"/><path d="M1229.92 2119.05 1253.14 2119.05 1253.14 2142.27 1229.92 2142.27Z"/><path d="M1253.14 2119.05 1276.35 2119.05 1276.35 2142.27 1253.14 2142.27Z"/><path d="M1322.78 2119.05 1346 2119.05 1346 2142.27 1322.78 2142.27Z"/><path d="M672.73 2142.27 695.946 2142.27 695.946 2165.49 672.73 2165.49Z"/><path d="M765.595 2142.27 788.811 2142.27 788.811 2165.49 765.595 2165.49Z"/><path d="M788.811 2142.27 812.027 2142.27 812.027 2165.49 788.811 2165.49Z"/><path d="M812.027 2142.27 835.243 2142.27 835.243 2165.49 812.027 2165.49Z"/><path d="M835.243 2142.27 858.46 2142.27 858.46 2165.49 835.243 2165.49Z"/><path d="M858.46 2142.27 881.676 2142.27 881.676 2165.49 858.46 2165.49Z"/><path d="M881.676 2142.27 904.892 2142.27 904.892 2165.49 881.676 2165.49Z"/><path d="M904.892 2142.27 928.108 2142.27 928.108 2165.49 904.892 2165.49Z"/><path d="M928.108 2142.27 951.324 2142.27 951.324 2165.49 928.108 2165.49Z"/><path d="M951.324 2142.27 974.541 2142.27 974.541 2165.49 951.324 2165.49Z"/><path d="M974.541 2142.27 997.757 2142.27 997.757 2165.49 974.541 2165.49Z"/><path d="M997.757 2142.27 1020.97 2142.27 1020.97 2165.49 997.757 2165.49Z"/><path d="M1090.62 2142.27 1113.84 2142.27 1113.84 2165.49 1090.62 2165.49Z"/><path d="M1113.84 2142.27 1137.05 2142.27 1137.05 2165.49 1113.84 2165.49Z"/><path d="M1137.05 2142.27 1160.27 2142.27 1160.27 2165.49 1137.05 2165.49Z"/><path d="M1229.92 2142.27 1253.14 2142.27 1253.14 2165.49 1229.92 2165.49Z"/><path d="M1276.35 2142.27 1299.57 2142.27 1299.57 2165.49 1276.35 2165.49Z"/><path d="M487 2165.49 510.216 2165.49 510.216 2188.7 487 2188.7Z"/><path d="M510.216 2165.49 533.432 2165.49 533.432 2188.7 510.216 2188.7Z"/><path d="M533.432 2165.49 556.649 2165.49 556.649 2188.7 533.432 2188.7Z"/><path d="M556.649 2165.49 579.865 2165.49 579.865 2188.7 556.649 2188.7Z"/><path d="M579.865 2165.49 603.081 2165.49 603.081 2188.7 579.865 2188.7Z"/><path d="M603.081 2165.49 626.297 2165.49 626.297 2188.7 603.081 2188.7Z"/><path d="M626.297 2165.49 649.514 2165.49 649.514 2188.7 626.297 2188.7Z"/><path d="M672.73 2165.49 695.946 2165.49 695.946 2188.7 672.73 2188.7Z"/><path d="M695.946 2165.49 719.162 2165.49 719.162 2188.7 695.946 2188.7Z"/><path d="M812.027 2165.49 835.243 2165.49 835.243 2188.7 812.027 2188.7Z"/><path d="M835.243 2165.49 858.46 2165.49 858.46 2188.7 835.243 2188.7Z"/><path d="M858.46 2165.49 881.676 2165.49 881.676 2188.7 858.46 2188.7Z"/><path d="M904.892 2165.49 928.108 2165.49 928.108 2188.7 904.892 2188.7Z"/><path d="M951.324 2165.49 974.541 2165.49 974.541 2188.7 951.324 2188.7Z"/><path d="M997.757 2165.49 1020.97 2165.49 1020.97 2188.7 997.757 2188.7Z"/><path d="M1044.19 2165.49 1067.41 2165.49 1067.41 2188.7 1044.19 2188.7Z"/><path d="M1067.41 2165.49 1090.62 2165.49 1090.62 2188.7 1067.41 2188.7Z"/><path d="M1137.05 2165.49 1160.27 2165.49 1160.27 2188.7 1137.05 2188.7Z"/><path d="M1183.49 2165.49 1206.7 2165.49 1206.7 2188.7 1183.49 2188.7Z"/><path d="M1229.92 2165.49 1253.14 2165.49 1253.14 2188.7 1229.92 2188.7Z"/><path d="M1253.14 2165.49 1276.35 2165.49 1276.35 2188.7 1253.14 2188.7Z"/><path d="M1276.35 2165.49 1299.57 2165.49 1299.57 2188.7 1276.35 2188.7Z"/><path d="M1322.78 2165.49 1346 2165.49 1346 2188.7 1322.78 2188.7Z"/><path d="M487 2188.7 510.216 2188.7 510.216 2211.92 487 2211.92Z"/><path d="M626.297 2188.7 649.514 2188.7 649.514 2211.92 626.297 2211.92Z"/><path d="M719.162 2188.7 742.378 2188.7 742.378 2211.92 719.162 2211.92Z"/><path d="M742.378 2188.7 765.595 2188.7 765.595 2211.92 742.378 2211.92Z"/><path d="M812.027 2188.7 835.243 2188.7 835.243 2211.92 812.027 2211.92Z"/><path d="M835.243 2188.7 858.46 2188.7 858.46 2211.92 835.243 2211.92Z"/><path d="M974.541 2188.7 997.757 2188.7 997.757 2211.92 974.541 2211.92Z"/><path d="M997.757 2188.7 1020.97 2188.7 1020.97 2211.92 997.757 2211.92Z"/><path d="M1020.97 2188.7 1044.19 2188.7 1044.19 2211.92 1020.97 2211.92Z"/><path d="M1044.19 2188.7 1067.41 2188.7 1067.41 2211.92 1044.19 2211.92Z"/><path d="M1090.62 2188.7 1113.84 2188.7 1113.84 2211.92 1090.62 2211.92Z"/><path d="M1113.84 2188.7 1137.05 2188.7 1137.05 2211.92 1113.84 2211.92Z"/><path d="M1137.05 2188.7 1160.27 2188.7 1160.27 2211.92 1137.05 2211.92Z"/><path d="M1229.92 2188.7 1253.14 2188.7 1253.14 2211.92 1229.92 2211.92Z"/><path d="M1253.14 2188.7 1276.35 2188.7 1276.35 2211.92 1253.14 2211.92Z"/><path d="M1299.57 2188.7 1322.78 2188.7 1322.78 2211.92 1299.57 2211.92Z"/><path d="M487 2211.92 510.216 2211.92 510.216 2235.14 487 2235.14Z"/><path d="M533.432 2211.92 556.649 2211.92 556.649 2235.14 533.432 2235.14Z"/><path d="M556.649 2211.92 579.865 2211.92 579.865 2235.14 556.649 2235.14Z"/><path d="M579.865 2211.92 603.081 2211.92 603.081 2235.14 579.865 2235.14Z"/><path d="M626.297 2211.92 649.514 2211.92 649.514 2235.14 626.297 2235.14Z"/><path d="M695.946 2211.92 719.162 2211.92 719.162 2235.14 695.946 2235.14Z"/><path d="M719.162 2211.92 742.378 2211.92 742.378 2235.14 719.162 2235.14Z"/><path d="M765.595 2211.92 788.811 2211.92 788.811 2235.14 765.595 2235.14Z"/><path d="M835.243 2211.92 858.46 2211.92 858.46 2235.14 835.243 2235.14Z"/><path d="M858.46 2211.92 881.676 2211.92 881.676 2235.14 858.46 2235.14Z"/><path d="M881.676 2211.92 904.892 2211.92 904.892 2235.14 881.676 2235.14Z"/><path d="M928.108 2211.92 951.324 2211.92 951.324 2235.14 928.108 2235.14Z"/><path d="M951.324 2211.92 974.541 2211.92 974.541 2235.14 951.324 2235.14Z"/><path d="M1020.97 2211.92 1044.19 2211.92 1044.19 2235.14 1020.97 2235.14Z"/><path d="M1044.19 2211.92 1067.41 2211.92 1067.41 2235.14 1044.19 2235.14Z"/><path d="M1067.41 2211.92 1090.62 2211.92 1090.62 2235.14 1067.41 2235.14Z"/><path d="M1137.05 2211.92 1160.27 2211.92 1160.27 2235.14 1137.05 2235.14Z"/><path d="M1160.27 2211.92 1183.49 2211.92 1183.49 2235.14 1160.27 2235.14Z"/><path d="M1183.49 2211.92 1206.7 2211.92 1206.7 2235.14 1183.49 2235.14Z"/><path d="M1206.7 2211.92 1229.92 2211.92 1229.92 2235.14 1206.7 2235.14Z"/><path d="M1229.92 2211.92 1253.14 2211.92 1253.14 2235.14 1229.92 2235.14Z"/><path d="M1276.35 2211.92 1299.57 2211.92 1299.57 2235.14 1276.35 2235.14Z"/><path d="M1299.57 2211.92 1322.78 2211.92 1322.78 2235.14 1299.57 2235.14Z"/><path d="M487 2235.14 510.216 2235.14 510.216 2258.35 487 2258.35Z"/><path d="M533.432 2235.14 556.649 2235.14 556.649 2258.35 533.432 2258.35Z"/><path d="M556.649 2235.14 579.865 2235.14 579.865 2258.35 556.649 2258.35Z"/><path d="M579.865 2235.14 603.081 2235.14 603.081 2258.35 579.865 2258.35Z"/><path d="M626.297 2235.14 649.514 2235.14 649.514 2258.35 626.297 2258.35Z"/><path d="M672.73 2235.14 695.946 2235.14 695.946 2258.35 672.73 2258.35Z"/><path d="M742.378 2235.14 765.595 2235.14 765.595 2258.35 742.378 2258.35Z"/><path d="M788.811 2235.14 812.027 2235.14 812.027 2258.35 788.811 2258.35Z"/><path d="M812.027 2235.14 835.243 2235.14 835.243 2258.35 812.027 2258.35Z"/><path d="M881.676 2235.14 904.892 2235.14 904.892 2258.35 881.676 2258.35Z"/><path d="M904.892 2235.14 928.108 2235.14 928.108 2258.35 904.892 2258.35Z"/><path d="M928.108 2235.14 951.324 2235.14 951.324 2258.35 928.108 2258.35Z"/><path d="M997.757 2235.14 1020.97 2235.14 1020.97 2258.35 997.757 2258.35Z"/><path d="M1020.97 2235.14 1044.19 2235.14 1044.19 2258.35 1020.97 2258.35Z"/><path d="M1113.84 2235.14 1137.05 2235.14 1137.05 2258.35 1113.84 2258.35Z"/><path d="M1137.05 2235.14 1160.27 2235.14 1160.27 2258.35 1137.05 2258.35Z"/><path d="M1160.27 2235.14 1183.49 2235.14 1183.49 2258.35 1160.27 2258.35Z"/><path d="M1206.7 2235.14 1229.92 2235.14 1229.92 2258.35 1206.7 2258.35Z"/><path d="M1229.92 2235.14 1253.14 2235.14 1253.14 2258.35 1229.92 2258.35Z"/><path d="M1253.14 2235.14 1276.35 2235.14 1276.35 2258.35 1253.14 2258.35Z"/><path d="M1299.57 2235.14 1322.78 2235.14 1322.78 2258.35 1299.57 2258.35Z"/><path d="M487 2258.35 510.216 2258.35 510.216 2281.57 487 2281.57Z"/><path d="M533.432 2258.35 556.649 2258.35 556.649 2281.57 533.432 2281.57Z"/><path d="M556.649 2258.35 579.865 2258.35 579.865 2281.57 556.649 2281.57Z"/><path d="M579.865 2258.35 603.081 2258.35 603.081 2281.57 579.865 2281.57Z"/><path d="M626.297 2258.35 649.514 2258.35 649.514 2281.57 626.297 2281.57Z"/><path d="M695.946 2258.35 719.162 2258.35 719.162 2281.57 695.946 2281.57Z"/><path d="M742.378 2258.35 765.595 2258.35 765.595 2281.57 742.378 2281.57Z"/><path d="M765.595 2258.35 788.811 2258.35 788.811 2281.57 765.595 2281.57Z"/><path d="M788.811 2258.35 812.027 2258.35 812.027 2281.57 788.811 2281.57Z"/><path d="M812.027 2258.35 835.243 2258.35 835.243 2281.57 812.027 2281.57Z"/><path d="M835.243 2258.35 858.46 2258.35 858.46 2281.57 835.243 2281.57Z"/><path d="M858.46 2258.35 881.676 2258.35 881.676 2281.57 858.46 2281.57Z"/><path d="M928.108 2258.35 951.324 2258.35 951.324 2281.57 928.108 2281.57Z"/><path d="M974.541 2258.35 997.757 2258.35 997.757 2281.57 974.541 2281.57Z"/><path d="M1020.97 2258.35 1044.19 2258.35 1044.19 2281.57 1020.97 2281.57Z"/><path d="M1067.41 2258.35 1090.62 2258.35 1090.62 2281.57 1067.41 2281.57Z"/><path d="M1090.62 2258.35 1113.84 2258.35 1113.84 2281.57 1090.62 2281.57Z"/><path d="M1160.27 2258.35 1183.49 2258.35 1183.49 2281.57 1160.27 2281.57Z"/><path d="M1183.49 2258.35 1206.7 2258.35 1206.7 2281.57 1183.49 2281.57Z"/><path d="M1229.92 2258.35 1253.14 2258.35 1253.14 2281.57 1229.92 2281.57Z"/><path d="M1299.57 2258.35 1322.78 2258.35 1322.78 2281.57 1299.57 2281.57Z"/><path d="M1322.78 2258.35 1346 2258.35 1346 2281.57 1322.78 2281.57Z"/><path d="M487 2281.57 510.216 2281.57 510.216 2304.78 487 2304.78Z"/><path d="M626.297 2281.57 649.514 2281.57 649.514 2304.78 626.297 2304.78Z"/><path d="M672.73 2281.57 695.946 2281.57 695.946 2304.78 672.73 2304.78Z"/><path d="M695.946 2281.57 719.162 2281.57 719.162 2304.78 695.946 2304.78Z"/><path d="M788.811 2281.57 812.027 2281.57 812.027 2304.78 788.811 2304.78Z"/><path d="M835.243 2281.57 858.46 2281.57 858.46 2304.78 835.243 2304.78Z"/><path d="M858.46 2281.57 881.676 2281.57 881.676 2304.78 858.46 2304.78Z"/><path d="M997.757 2281.57 1020.97 2281.57 1020.97 2304.78 997.757 2304.78Z"/><path d="M1020.97 2281.57 1044.19 2281.57 1044.19 2304.78 1020.97 2304.78Z"/><path d="M1090.62 2281.57 1113.84 2281.57 1113.84 2304.78 1090.62 2304.78Z"/><path d="M1113.84 2281.57 1137.05 2281.57 1137.05 2304.78 1113.84 2304.78Z"/><path d="M1206.7 2281.57 1229.92 2281.57 1229.92 2304.78 1206.7 2304.78Z"/><path d="M1229.92 2281.57 1253.14 2281.57 1253.14 2304.78 1229.92 2304.78Z"/><path d="M1253.14 2281.57 1276.35 2281.57 1276.35 2304.78 1253.14 2304.78Z"/><path d="M1322.78 2281.57 1346 2281.57 1346 2304.78 1322.78 2304.78Z"/><path d="M487 2304.78 510.216 2304.78 510.216 2328 487 2328Z"/><path d="M510.216 2304.78 533.432 2304.78 533.432 2328 510.216 2328Z"/><path d="M533.432 2304.78 556.649 2304.78 556.649 2328 533.432 2328Z"/><path d="M556.649 2304.78 579.865 2304.78 579.865 2328 556.649 2328Z"/><path d="M579.865 2304.78 603.081 2304.78 603.081 2328 579.865 2328Z"/><path d="M603.081 2304.78 626.297 2304.78 626.297 2328 603.081 2328Z"/><path d="M626.297 2304.78 649.514 2304.78 649.514 2328 626.297 2328Z"/><path d="M672.73 2304.78 695.946 2304.78 695.946 2328 672.73 2328Z"/><path d="M719.162 2304.78 742.378 2304.78 742.378 2328 719.162 2328Z"/><path d="M765.595 2304.78 788.811 2304.78 788.811 2328 765.595 2328Z"/><path d="M812.027 2304.78 835.243 2304.78 835.243 2328 812.027 2328Z"/><path d="M858.46 2304.78 881.676 2304.78 881.676 2328 858.46 2328Z"/><path d="M951.324 2304.78 974.541 2304.78 974.541 2328 951.324 2328Z"/><path d="M1044.19 2304.78 1067.41 2304.78 1067.41 2328 1044.19 2328Z"/><path d="M1090.62 2304.78 1113.84 2304.78 1113.84 2328 1090.62 2328Z"/><path d="M1137.05 2304.78 1160.27 2304.78 1160.27 2328 1137.05 2328Z"/><path d="M1183.49 2304.78 1206.7 2304.78 1206.7 2328 1183.49 2328Z"/><path d="M1229.92 2304.78 1253.14 2304.78 1253.14 2328 1229.92 2328Z"/><path d="M1276.35 2304.78 1299.57 2304.78 1299.57 2328 1276.35 2328Z"/><path d="M1322.78 2304.78 1346 2304.78 1346 2328 1322.78 2328Z"/></g></g></g><text font-family="Arial,Arial_MSFontService,sans-serif" font-weight="700" font-size="128" transform="matrix(1 0 0 1 451.229 1345)">1624 8719 2291</text><g clip-path="url(#clip4)"><g clip-path="url(#clip5)"><g clip-path="url(#clip6)"><path d="M344.197 41.4929 348.411 41.4929 348.411 40.5205 348.411 31.4439C348.411 29.8231 349.189 29.0451 350.875 29.0451L359.886 29.0451 360.989 29.0451 360.989 25.9979C360.989 25.0254 360.989 24.0529 360.989 23.0804 360.989 21.5245 361.767 20.8113 363.387 20.7465 365.008 20.7465 366.629 20.7465 368.315 20.7465L369.287 20.7465 369.287 12.5127 360.924 12.5127 360.924 15.6247C360.924 16.5323 360.924 17.44 360.924 18.4125 360.924 19.8388 360.081 20.8113 358.849 20.8113 357.617 20.8113 356.774 19.8388 356.774 18.4125 356.774 16.7917 356.774 15.1709 356.774 13.6149L356.774 12.5127 355.543 12.5127C347.503 12.4479 348.476 13.4204 348.411 5.31628L348.411 2.33398C348.476 0.777993 349.189 0 350.745 0L358.655 0C360.211 0 360.989 0.842825 360.989 2.39881 360.989 4.34379 360.989 6.28877 360.989 8.29859L362.026 8.29859 371.167 8.29859C372.723 8.29859 373.566 9.14141 373.566 10.6974 373.566 14.6522 373.566 18.607 373.566 22.5618 373.566 24.1178 372.723 24.9606 371.167 24.9606L365.138 24.9606 365.138 30.4714C365.138 32.6109 364.49 33.1944 362.35 33.1944L353.663 33.1944 352.69 33.1944 352.69 41.4281 369.417 41.4281 369.417 39.6776C369.417 38.2513 369.417 36.825 369.417 35.3987 369.417 34.0372 370.26 33.2592 371.621 33.1944L379.79 33.1944C381.216 33.2592 381.994 34.0372 381.994 35.4635 382.059 38.1216 382.059 40.7798 381.994 43.4379 381.994 44.7994 381.152 45.6422 379.725 45.7071 377.715 45.7071 375.706 45.7071 373.696 45.7071L373.696 58.0901 377.78 58.0901 377.78 53.4222 377.78 52.1903C377.78 50.6992 378.623 49.8564 380.114 49.8564L389.256 49.8564 390.358 49.8564 390.358 47.9762C390.358 46.6147 390.358 45.1884 390.358 43.7621 390.358 42.4006 391.136 41.6226 392.562 41.5578 394.248 41.5578 395.933 41.5578 397.684 41.5578L398.721 41.5578 398.721 33.1944 397.749 33.1944 388.348 33.1944C387.246 33.1944 386.338 32.4164 386.273 31.3142 386.209 30.3417 386.857 29.4341 387.764 29.1747 388.024 29.1099 388.283 29.1099 388.478 29.1099 392.562 29.1099 396.647 29.1099 400.731 29.1099 402.157 29.1099 403 29.9527 403 31.3142 403 38.1216 403 44.9291 403 51.7365 403 53.2277 402.157 54.0057 400.601 54.0057L383.226 54.0057 382.124 54.0057 382.124 58.0901C382.448 58.0901 382.772 58.1549 383.097 58.1549 386.079 58.1549 389.061 58.1549 392.043 58.1549 393.859 58.1549 394.637 58.9329 394.637 60.6834L394.637 69.5655 394.637 70.6028 400.407 70.6028C402.287 70.6028 403 71.316 403 73.1961 403 75.595 403 78.0586 403 80.5222 403 82.2727 402.222 83.0507 400.472 83.0507L393.016 83.0507C391.136 83.0507 390.423 82.3376 390.423 80.4574L390.423 63.4712 390.423 62.3691 382.059 62.3691 382.059 67.7502C382.059 69.9545 381.411 70.6028 379.207 70.6028L372.01 70.6028C370.26 70.6028 369.482 69.8248 369.482 68.1392L369.482 46.8741 369.482 45.7719 352.69 45.7719 352.69 49.8564 353.663 49.8564 362.804 49.8564C364.36 49.8564 365.138 50.6344 365.138 52.1903 365.138 57.5715 365.138 62.8877 365.138 68.204 365.138 69.8248 364.36 70.6028 362.739 70.6028L355.024 70.6028C353.403 70.6028 352.56 69.76 352.56 68.204L352.56 60.6186C352.56 58.9978 353.338 58.1549 354.959 58.1549 356.904 58.1549 358.914 58.1549 360.859 58.1549L360.859 54.0057 359.951 54.0057 351.069 54.0057C348.995 54.0057 348.346 53.3573 348.346 51.2178L348.346 45.7071 347.309 45.7071 334.213 45.7071C332.333 45.7071 331.555 44.9939 331.555 43.0489L331.555 35.5932C331.555 34.0372 332.397 33.1944 333.953 33.1944L341.863 33.1944C343.354 33.1944 344.197 34.0372 344.197 35.5283 344.262 37.5381 344.197 39.4183 344.197 41.4929M335.898 41.4281 339.983 41.4281 339.983 37.4085 335.898 37.4085 335.898 41.4281ZM377.651 37.4085 373.566 37.4085 373.566 41.4929 377.651 41.4929 377.651 37.4085ZM356.839 66.4535 360.924 66.4535 360.924 62.3691 356.839 62.3691 356.839 66.4535ZM398.592 74.817 394.507 74.817 394.507 78.8366 398.592 78.8366 398.592 74.817ZM377.651 62.3691 373.566 62.3691 373.566 66.3887 377.651 66.3887 377.651 62.3691ZM394.572 49.7915 398.592 49.7915 398.592 45.7719 394.572 45.7719 394.572 49.7915ZM352.625 8.23376 356.71 8.23376 356.71 4.27896 352.625 4.27896 352.625 8.23376Z" transform="matrix(1.00032 0 0 1 725 995.058)"/><path d="M319.107 70.6677C319.107 68.0095 319.107 65.2866 319.107 62.6284 319.107 59.9054 320.792 58.1549 323.515 58.1549 328.961 58.1549 334.407 58.1549 339.853 58.1549 342.576 58.1549 344.262 59.9054 344.262 62.5636 344.262 67.9447 344.262 73.261 344.262 78.6421 344.262 81.3002 342.576 83.0507 339.918 83.0507 334.472 83.0507 329.026 83.0507 323.58 83.0507 320.857 83.0507 319.171 81.2354 319.171 78.5124 319.107 75.9191 319.107 73.3258 319.107 70.6677M339.983 62.3691 323.321 62.3691 323.321 78.8366 339.983 78.8366 339.983 62.3691Z" transform="matrix(1.00032 0 0 1 725 995.058)"/><path d="M390.293 0 398.332 0C401.185 0 402.871 1.75048 402.871 4.60312 402.871 9.85457 402.871 15.106 402.871 20.3575 402.871 23.2101 401.12 24.9606 398.332 24.9606L382.254 24.9606C379.531 24.9606 377.78 23.2101 377.78 20.4871L377.78 4.47346C377.78 1.75048 379.466 0.0648327 382.189 0L390.293 0M398.592 4.27896 381.994 4.27896 381.994 20.7465 398.592 20.7465 398.592 4.27896Z" transform="matrix(1.00032 0 0 1 725 995.058)"/><path d="M331.619 0 339.788 0C342.576 0.0648327 344.262 1.75048 344.262 4.47346 344.262 9.78974 344.262 15.106 344.262 20.4871 344.262 23.1453 342.511 24.8958 339.853 24.9606L323.515 24.9606C320.857 24.9606 319.107 23.1453 319.107 20.4871 319.107 15.1709 319.107 9.85457 319.107 4.47346 319.107 1.68565 320.792 1.15166e-15 323.58 1.15166e-15L331.619 1.15166e-15M323.321 20.6816 339.983 20.6816 339.983 4.27896 323.321 4.27896 323.321 20.6816Z" transform="matrix(1.00032 0 0 1 725 995.058)"/><path d="M337.973 54.0057 333.953 54.0057C332.592 54.0057 331.619 53.1628 331.619 51.931 331.619 50.764 332.527 49.9212 333.889 49.9212L341.993 49.9212C343.289 49.9212 344.197 50.8289 344.197 51.9958 344.197 53.2277 343.289 54.0705 341.928 54.0705L337.973 54.0705" transform="matrix(1.00032 0 0 1 725 995.058)"/><path d="M402.871 62.3691C402.871 63.0174 402.871 63.6009 402.871 64.2492 402.806 65.5459 401.963 66.4535 400.796 66.4535 399.629 66.4535 398.721 65.5459 398.656 64.3141 398.656 62.9526 398.656 61.5911 398.656 60.1648 398.721 58.9329 399.694 58.0901 400.796 58.0901 401.963 58.1549 402.806 58.9978 402.871 60.2296 402.871 61.0076 402.871 61.7207 402.871 62.3691" transform="matrix(1.00032 0 0 1 725 995.058)"/><path d="M358.914 78.8366C358.914 78.1883 358.914 77.5399 358.914 76.8916 358.979 75.6598 359.886 74.817 361.053 74.817 362.156 74.817 363.063 75.6598 363.128 76.8268 363.193 78.2531 363.193 79.6794 363.128 81.0409 363.063 82.2727 362.156 83.1804 360.989 83.1155 359.822 83.0507 359.044 82.1431 358.979 80.9112 358.849 80.1981 358.914 79.5498 358.914 78.8366" transform="matrix(1.00032 0 0 1 725 995.058)"/><path d="M384.004 78.9663C384.004 79.6146 384.004 80.3277 384.004 80.9761 383.939 82.2727 383.032 83.1804 381.865 83.1155 380.698 83.0507 379.855 82.1431 379.79 80.9112 379.79 79.6146 379.79 78.2531 379.79 76.9564 379.79 75.6598 380.698 74.7521 381.93 74.7521 383.032 74.7521 383.939 75.595 384.004 76.8916 384.069 77.5399 384.004 78.2531 384.004 78.9663" transform="matrix(1.00032 0 0 1 725 995.058)"/><path d="M369.417 0C370.065 0 370.778 0 371.492 0 372.658 0.0648327 373.501 0.842825 373.501 1.94498 373.566 3.04714 372.723 4.08446 371.556 4.08446 370.065 4.21413 368.509 4.21413 367.018 4.08446 365.916 4.08446 365.073 3.04714 365.138 2.00981 365.203 0.907658 366.046 0.0648327 367.213 -2.87915e-16 367.926 0 368.704 0 369.417 0" transform="matrix(1.00032 0 0 1 725 995.058)"/><path d="M323.321 54.0057C322.608 54.0057 321.894 54.0057 321.181 54.0057 319.949 53.9408 319.107 53.098 319.107 51.931 319.107 50.8289 319.949 49.9212 321.116 49.8564 322.543 49.8564 324.034 49.8564 325.525 49.9212 326.627 49.9212 327.47 50.8937 327.535 51.931 327.535 53.0332 326.692 53.9408 325.525 54.0057 324.747 54.0057 324.034 54.0057 323.321 54.0057" transform="matrix(1.00032 0 0 1 725 995.058)"/><path d="M323.321 39.4831C323.969 39.4831 324.682 39.4831 325.395 39.4831 326.562 39.4831 327.535 40.4556 327.47 41.5578 327.47 42.6599 326.562 43.5676 325.395 43.5676 323.969 43.6324 322.608 43.6324 321.181 43.5676 320.014 43.5028 319.107 42.6599 319.107 41.5578 319.107 40.3908 319.949 39.4831 321.181 39.4831 321.894 39.4831 322.608 39.4831 323.321 39.4831" transform="matrix(1.00032 0 0 1 725 995.058)"/><path d="M323.256 33.1944C322.608 33.1944 321.894 33.2592 321.181 33.1944 319.949 33.1295 319.042 32.2867 319.107 31.1197 319.107 30.0175 319.949 29.1099 321.116 29.0451 322.543 28.9802 323.969 28.9802 325.46 29.0451 326.627 29.1099 327.535 30.0175 327.535 31.1197 327.535 32.2219 326.627 33.1295 325.46 33.1944 324.682 33.2592 323.969 33.1944 323.256 33.1944" transform="matrix(1.00032 0 0 1 725 995.058)"/><path d="M373.501 78.9663C373.501 79.6794 373.566 80.3277 373.501 81.0409 373.436 82.2079 372.594 83.0507 371.427 83.1155 370.325 83.1155 369.417 82.2727 369.352 81.1057 369.352 79.6794 369.352 78.1883 369.352 76.8268 369.417 75.6598 370.325 74.817 371.492 74.817 372.529 74.817 373.436 75.6598 373.501 76.7619 373.566 77.4751 373.501 78.1883 373.501 78.9663" transform="matrix(1.00032 0 0 1 725 995.058)"/><path d="M348.411 78.8366C348.411 78.1234 348.346 77.4103 348.411 76.6971 348.476 75.595 349.384 74.7521 350.486 74.7521 351.588 74.7521 352.56 75.5301 352.56 76.6323 352.625 78.1234 352.625 79.6146 352.56 81.1057 352.496 82.2079 351.523 83.0507 350.486 83.0507 349.384 83.0507 348.476 82.2079 348.411 81.1057 348.411 80.3926 348.411 79.6146 348.411 78.8366" transform="matrix(1.00032 0 0 1 725 995.058)"/><path d="M348.411 20.7465C348.411 20.0333 348.411 19.3202 348.411 18.5422 348.476 17.44 349.319 16.5972 350.421 16.5972 351.523 16.5972 352.496 17.44 352.56 18.5422 352.625 20.0333 352.625 21.4596 352.56 22.9508 352.496 24.0529 351.588 24.8958 350.486 24.8958 349.384 24.8958 348.476 24.0529 348.411 22.9508 348.411 22.2376 348.411 21.5245 348.411 20.7465" transform="matrix(1.00032 0 0 1 725 995.058)"/><path d="M331.619 66.4535C332.333 66.4535 333.046 66.4535 333.759 66.4535 334.926 66.5184 335.769 67.2315 335.769 68.3985 335.833 69.8897 335.833 71.316 335.769 72.7423 335.704 73.8445 334.861 74.6873 333.694 74.6873 332.333 74.6873 330.906 74.6873 329.48 74.6873 328.248 74.6225 327.405 73.8445 327.405 72.6126 327.405 71.2512 327.405 69.8897 327.405 68.5282 327.405 67.2964 328.248 66.5184 329.48 66.4535 330.258 66.4535 330.971 66.4535 331.619 66.4535" transform="matrix(1.00032 0 0 1 725 995.058)"/><path d="M390.293 16.5972C389.58 16.5972 388.932 16.5972 388.218 16.5972 386.987 16.5323 386.144 15.7544 386.144 14.5225 386.079 13.161 386.079 11.7996 386.144 10.4381 386.209 9.14141 387.051 8.36342 388.348 8.36342 389.709 8.36342 391.006 8.36342 392.368 8.36342 393.664 8.36342 394.507 9.20625 394.507 10.5029 394.507 11.7996 394.507 13.161 394.507 14.5225 394.507 15.8192 393.664 16.5972 392.368 16.662 391.654 16.5972 390.941 16.5972 390.293 16.5972" transform="matrix(1.00032 0 0 1 725 995.058)"/><path d="M331.619 16.5972C330.971 16.5972 330.258 16.5972 329.545 16.5972 328.313 16.5323 327.47 15.7544 327.47 14.5225L327.47 10.4381C327.47 9.20625 328.313 8.36342 329.545 8.36342 330.971 8.29859 332.333 8.29859 333.759 8.36342 334.991 8.36342 335.769 9.14141 335.833 10.3732 335.898 11.7996 335.898 13.161 335.833 14.5874 335.769 15.8192 334.991 16.5972 333.694 16.5972 333.046 16.5972 332.333 16.5972 331.619 16.5972" transform="matrix(1.00032 0 0 1 725 995.058)"/><path d="M0 0.129665 0 82.9211 310.808 82.9859 310.808 0.129665Z" fill="#FFD000" transform="matrix(1.00032 0 0 1 725 995.058)"/><path d="M193.461 59.1923C189.052 59.1923 184.708 58.3494 182.245 57.377L182.245 22.3673 191.386 22.3673 191.386 34.1668C192.553 33.713 194.563 33.3889 196.119 33.3889 203.834 33.3889 209.15 37.6678 209.15 45.3829 209.215 54.7188 203.64 59.1923 193.461 59.1923M194.304 39.159C193.266 39.159 192.164 39.4183 191.451 39.6776L191.451 53.0332C192.035 53.1628 193.072 53.2925 194.109 53.2925 197.934 53.2925 200.074 50.6344 200.074 46.0312 200.074 41.6874 197.999 39.159 194.304 39.159" fill="#1D1D1B" transform="matrix(1.00032 0 0 1 725 995.058)"/><path d="M224.516 59.1923C215.115 59.1923 210.382 56.3396 210.382 50.9585 210.382 44.3456 218.486 42.7896 227.498 42.4006L227.498 41.3633C227.498 39.4183 225.812 38.4458 222.765 38.4458 219.913 38.4458 216.412 39.2238 214.272 40.0018L212.068 34.88C214.726 33.9723 218.421 32.8702 223.867 32.8702 231.971 32.8702 236.121 35.658 236.121 42.2709L236.121 57.2473C233.852 58.3494 229.249 59.1923 224.516 59.1923M227.498 47.1982C222.571 47.3927 218.875 47.8465 218.875 50.8289 218.875 52.9035 220.95 53.9408 224.192 53.9408 225.488 53.9408 226.915 53.7463 227.498 53.5518L227.498 47.1982Z" fill="#1D1D1B" transform="matrix(1.00032 0 0 1 725 995.058)"/><path d="M256.413 58.6736 256.413 42.5303C256.413 40.4556 255.246 39.0941 251.94 39.0941 250.254 39.0941 248.763 39.6776 248.763 39.6776L248.763 58.6736 239.622 58.6736 239.622 35.0097C242.928 33.9723 246.883 33.0647 252.07 33.0647 261.47 33.0647 265.555 36.2415 265.555 41.6874L265.555 58.7384 256.413 58.7384Z" fill="#1D1D1B" transform="matrix(1.00032 0 0 1 725 995.058)"/><path d="M287.403 58.6736 278.262 46.2257 278.132 46.2257 278.132 58.6736 269.056 58.6736 269.056 22.3673 278.132 22.3673 278.132 44.4104 278.262 44.4104 286.561 33.7778 296.804 33.7778 287.533 45.3829 297.582 58.6736Z" fill="#1D1D1B" transform="matrix(1.00032 0 0 1 725 995.058)"/><path d="M165.064 68.593 155.469 68.593 160.007 58.6736 148.726 33.7778 158.646 33.7778 164.74 51.4772 170.769 33.7778 180.689 33.7778Z" fill="#1D1D1B" transform="matrix(1.00032 0 0 1 725 995.058)"/><path d="M117.477 25.2199 106.844 25.2199 99.7776 45.8367 92.7756 25.2199 82.1431 25.2199 77.2806 58.6736 85.9682 58.6736 88.756 35.658 96.9249 58.6736 102.695 58.6736 110.864 35.658 113.652 58.6736 122.339 58.6736Z" fill="#1D1D1B" transform="matrix(1.00032 0 0 1 725 995.058)"/><path d="M137.51 59.1923C128.109 59.1923 123.441 56.3396 123.441 50.9585 123.441 44.3456 131.546 42.7896 140.557 42.4006L140.557 41.3633C140.557 39.4183 138.872 38.4458 135.825 38.4458 132.972 38.4458 129.536 39.2238 127.396 40.0018L125.127 35.0097C127.85 34.102 132.324 32.9999 136.927 32.9999 145.031 32.9999 149.18 35.7877 149.18 42.4006L149.18 57.377C146.911 58.3494 142.373 59.1923 137.51 59.1923M140.557 47.1982C135.695 47.3927 131.935 47.8465 131.935 50.8289 131.935 52.9035 133.944 53.9408 137.251 53.9408 138.483 53.9408 139.909 53.7463 140.557 53.5518L140.557 47.1982Z" fill="#1D1D1B" transform="matrix(1.00032 0 0 1 725 995.058)"/><path d="M41.0391 14.0039C25.6738 14.0039 13.2259 26.5166 13.2259 41.8819 13.2259 57.2473 25.6738 69.76 41.0391 69.76 56.4693 69.76 68.9172 57.3121 68.9172 41.8819 68.9172 26.5166 56.4693 14.0039 41.0391 14.0039M41.0391 67.5557C26.9056 67.5557 15.4302 56.0803 15.4302 41.9468 15.4302 27.8132 26.9056 16.3378 41.0391 16.3378 55.1726 16.3378 66.648 27.8132 66.648 41.9468 66.648 56.0803 55.2375 67.5557 41.0391 67.5557" fill="#1D1D1B" transform="matrix(1.00032 0 0 1 725 995.058)"/><path d="M29.9527 40.6501C28.0077 40.1315 26.1924 42.4654 25.2199 44.2159 25.5441 41.8171 28.5264 37.8623 29.9527 40.6501" fill="#1D1D1B" transform="matrix(1.00032 0 0 1 725 995.058)"/><path d="M25.5441 40.6501C26.1924 38.381 27.8132 37.4733 28.6561 38.1865 27.5539 38.5755 26.7111 39.2238 25.5441 40.6501" fill="#1D1D1B" transform="matrix(1.00032 0 0 1 725 995.058)"/><path d="M30.6659 44.3456C31.7032 43.5028 31.5735 42.2061 29.9527 41.7523 28.7857 41.4281 26.2573 43.5676 25.9331 45.9664 27.0352 44.6697 29.9527 42.2709 30.6659 44.3456" fill="#1D1D1B" transform="matrix(1.00032 0 0 1 725 995.058)"/><path d="M46.6796 50.4399C46.8741 47.4576 43.8918 46.0312 43.3731 42.9193 42.7896 39.8073 47.9114 34.88 44.6697 29.8231 50.764 34.7503 45.9664 37.6678 49.0784 41.7523 47.9114 41.3633 46.6796 40.326 46.3554 39.7425 44.6049 42.0764 50.5695 45.1884 46.6796 50.4399" fill="#1D1D1B" transform="matrix(1.00032 0 0 1 725 995.058)"/><path d="M36.825 26.1276C37.5381 26.1276 38.77 26.6462 38.2513 27.2297 36.5657 28.7857 34.2965 28.1374 32.4812 29.7582 33.1944 27.7484 36.5008 27.4891 36.825 26.1276" fill="#1D1D1B" transform="matrix(1.00032 0 0 1 725 995.058)"/><path d="M42.3358 28.3967C43.0489 27.5539 42.4006 26.5166 39.4831 26.1276 42.4654 27.6187 37.6678 27.9429 37.4733 30.4714 35.9173 31.1197 34.6207 30.0824 33.8427 30.7955 33.0647 31.5087 32.2219 31.0549 32.4812 30.212 31.5735 30.7307 31.768 31.9625 32.6757 32.3515 32.8702 32.4164 32.9999 32.6109 32.8702 32.7405 31.8977 33.6482 31.379 34.491 32.4812 35.3987 32.9999 34.3613 33.324 33.9723 33.9723 33.4537 34.5558 33.8427 35.5932 33.5834 36.9547 32.0922 37.0195 32.0274 37.1492 32.0274 37.0843 32.157 35.9822 35.9822 33.1295 36.5657 32.2867 36.3712 32.8054 37.1492 36.436 37.7326 36.8898 36.1118 37.9271 32.546 41.3633 30.9252 38.381 30.99 38.9645 29.9527 41.6874 29.0451 42.3358 28.3967M34.6855 32.8054C34.491 32.8054 34.2317 32.4812 34.2317 32.0922 34.491 32.8702 35.2042 32.4812 34.8152 31.4439 35.0745 31.4439 35.4635 31.4439 36.2415 31.4439 35.5283 31.8329 35.1393 32.8054 34.6855 32.8054" fill="#1D1D1B" transform="matrix(1.00032 0 0 1 725 995.058)"/><path d="M43.8269 26.4517C45.2532 27.3594 45.9664 28.0077 46.9389 29.1099 47.1334 27.5539 46.2257 24.5716 44.9291 23.7936 44.3456 23.5343 43.5676 25.6089 43.8269 26.4517" fill="#1D1D1B" transform="matrix(1.00032 0 0 1 725 995.058)"/><path d="M20.6168 38.77C21.5245 36.3063 23.7936 33.3889 27.5539 31.1845 28.3967 28.9802 28.1374 27.4891 37.0843 24.0529 37.2788 22.6915 37.2788 21.1355 37.6678 21.1355 37.992 21.1355 39.3535 21.719 40.326 23.1453 40.715 23.0804 41.0391 23.0156 41.2984 23.0156 41.4281 22.2376 42.0116 20.0981 42.7248 18.996 43.3731 18.0235 44.6049 17.8938 46.2257 19.2553 47.9114 20.6168 49.0784 21.2003 51.3475 24.1178 53.2925 24.9606 56.3396 26.0628 58.9329 29.2396 57.766 28.5264 56.5341 28.2671 55.432 28.0726 57.5715 29.9527 58.9978 32.9999 57.8956 37.5381 57.5066 33.324 54.3947 31.5087 52.5145 30.212 53.5518 33.7778 49.0784 32.546 47.7169 29.8879 48.1707 30.0175 48.6245 30.0175 48.9487 29.8231 48.819 24.3771 46.2257 21.2651 45.1236 20.3575 43.6973 19.1257 42.8544 22.0431 42.4006 24.2474 42.2061 24.9606 41.6226 25.4793 40.8446 25.4793 40.9743 25.2199 41.1688 24.5068 41.2336 24.2474 38.9645 24.4419 36.436 25.7386 34.88 26.4517 30.8604 28.2022 29.8879 29.1099 29.0451 32.157 25.7386 33.4537 22.1728 37.0843 20.6168 38.77" fill="#1D1D1B" transform="matrix(1.00032 0 0 1 725 995.058)"/><path d="M40.3908 38.0568C40.8446 38.5755 43.4379 42.5303 40.3908 47.5224 41.2336 43.8269 38.8996 36.7602 36.3712 40.3908 38.1216 41.1688 38.7051 42.5303 38.2513 43.8918 37.5381 42.5303 35.7877 41.1039 33.9723 41.7523 33.0647 42.0116 31.8977 42.0116 31.0549 40.7798 29.9527 39.0941 31.8329 37.0843 28.5912 37.214 32.546 35.2042 31.4439 39.0941 33.2592 39.6128 35.4635 40.1315 35.7877 38.77 36.5008 37.8623 37.0843 37.0843 38.2513 36.5657 39.4183 37.3436 40.0018 35.5932 39.159 32.8702 40.7798 31.4439 41.3633 30.9252 43.3083 30.99 44.2808 31.768 42.8544 31.6384 41.2336 33.324 40.3908 38.0568" fill="#1D1D1B" transform="matrix(1.00032 0 0 1 725 995.058)"/><path d="M60.6834 31.1197C62.6932 38.1216 62.1097 44.8642 60.0351 48.9487 60.2944 46.4202 58.0253 42.7248 58.9978 38.381 54.7836 42.4654 61.3966 52.5145 51.8013 59.0626 53.2277 56.7935 53.876 51.0233 53.4222 48.9487 53.876 49.1432 54.4595 49.7915 54.7836 50.3102 55.5616 47.7169 55.6913 43.9566 54.2002 40.2611 54.7188 40.326 55.7561 40.7798 56.2748 41.2336 56.5341 35.3987 52.2552 34.9448 51.4772 33.3889 51.4772 35.0745 53.487 36.5008 53.8112 38.7051 52.3848 38.0568 51.4123 37.992 50.6992 38.0568 51.8013 38.8348 54.1353 43.4379 53.487 47.1982 52.4497 46.3554 51.4772 45.9664 50.4399 45.9016 51.7365 47.7817 52.2552 52.8387 50.6992 55.1078 50.6344 54.5891 50.4399 53.098 49.8564 52.5145 49.1432 55.3023 46.9389 56.4693 45.4477 56.8583 47.3279 54.9133 46.9389 51.4123 44.2159 50.5047 41.7523 49.6619 38.5755 51.3475 37.3436 57.1825 35.5932 57.7011 30.212 56.599 33.3889 53.098 35.3338 53.7463 40.2611 50.4399 39.937 48.1059 39.4831 44.8642 36.5657 43.7621 34.1668 43.7621 31.3142 43.8269 29.3692 46.4851 26.9704 47.7169 24.9606 47.3927 24.3123 47.1334 23.3398 44.4752 23.2101 42.8544 24.9606 41.7523 24.8958 40.0666 23.5343 40.326 23.2101 38.2513 20.4223 40.4556 20.2278 40.0666 20.6168 39.0941 20.6168 39.0941 19.5795 40.0018 19.385 41.1039 19.385 41.3633 19.8388 42.3358 20.552 43.2434 21.9135 44.0863 23.5343 48.43 25.1551 48.8839 26.9056 49.0135 27.1649 49.4025 28.4616 50.8937 30.0824 51.153 29.8231 50.375 29.7582 48.041 29.8879 47.5224 33.3889 44.0214 35.9822 46.1609 36.3063 47.0686 33.1944 47.7169 35.3987 54.3298 30.2769 51.4123 30.0824 52.0607 30.3417 53.8112 30.99 54.7836 31.5087 59.3219 37.214 58.2198 39.0293 58.9978 38.8348 54.5243 41.2984 51.3475 43.3731 51.6068 45.4477 51.8662 46.0312 55.3671 42.4654 58.5439 43.3731 59.0626 47.1982 58.3494 49.1432 56.988 49.3377 58.0901 47.9114 61.4614 46.0961 63.7954 60.9428 60.3593 67.6854 43.9566 60.6834 31.1197M22.4321 43.5676C21.7838 43.0489 20.6168 41.8819 20.4871 41.4281 20.6168 41.2336 21.2003 40.5853 21.9783 40.3908 22.497 40.2611 22.886 40.5853 22.8211 40.7798 22.6915 40.9094 22.2376 40.9094 22.108 41.3633 21.8486 42.0764 22.6266 42.2061 22.6915 42.5303 22.8211 42.6599 23.0156 43.1138 22.4321 43.5676M27.4891 48.5597C27.6187 48.1707 28.3967 47.6521 28.7209 47.6521 28.5912 48.7542 29.0451 50.3102 29.0451 50.3102 29.0451 50.3102 27.4891 49.2729 27.4891 48.5597M35.3338 49.597C35.7228 49.7267 36.047 49.986 36.436 49.7267 36.825 49.4674 36.436 48.3652 36.1767 48.041 36.5008 47.9762 37.8623 48.1059 37.8623 48.6245 37.6678 49.9212 36.8898 50.375 34.88 51.2827 35.2042 50.9585 35.1393 50.3102 35.3338 49.597M31.379 53.9408C31.1845 53.7463 30.6659 53.098 30.6659 52.3848 31.379 52.8387 32.2219 53.0332 32.2219 53.0332 32.2219 53.0332 31.8329 53.7463 31.379 53.9408" fill="#1D1D1B" transform="matrix(1.00032 0 0 1 725 995.058)"/><path d="M361.831 117.736 348.152 91.6735 375.446 91.6735Z" fill="#FFD000" transform="matrix(1.00032 0 0 1 725 995.058)"/><path d="M383.875 91.6735C382.189 94.5261 362.998 129.341 361.183 132.194 357.552 126.1 342.382 97.8326 338.686 91.6735L319.82 91.6735C325.201 101.009 347.309 139.974 352.56 149.245L352.56 180.883 369.676 180.883 369.676 149.18C371.945 145.29 400.407 95.3689 402.676 91.6086L383.875 91.6086Z" fill="#1D1D1B" transform="matrix(1.00032 0 0 1 725 995.058)"/><path d="M258.618 110.864C256.932 106.974 254.663 103.668 251.875 100.815 249.022 97.9622 245.651 95.6931 241.761 94.0074 237.871 92.3218 233.787 91.479 229.378 91.479L189.571 91.479 189.571 180.883 206.622 180.883 206.622 154.302 226.526 154.302C232.231 154.302 237.288 153.524 241.567 151.903 245.911 150.347 249.476 148.143 252.394 145.29 255.246 142.567 257.386 139.196 258.877 135.5 260.368 131.74 261.081 127.656 261.081 123.312 261.146 118.903 260.303 114.754 258.618 110.864M243.188 129.147C242.604 131.027 241.761 132.713 240.594 134.139 239.427 135.63 237.871 136.797 235.991 137.64 234.176 138.483 231.971 138.937 229.443 138.937L206.687 138.937 206.687 106.715 227.563 106.715C230.286 106.715 232.62 107.233 234.694 108.206 236.769 109.178 238.455 110.41 239.816 112.031 241.178 113.522 242.215 115.337 242.993 117.347 243.706 119.357 244.095 121.367 244.095 123.377 244.03 125.322 243.771 127.267 243.188 129.147" fill="#1D1D1B" transform="matrix(1.00032 0 0 1 725 995.058)"/><path d="M320.663 138.418 305.751 144.707 295.832 124.933 280.596 155.339 279.688 157.284 278.068 160.461 267.889 180.818 249.282 180.818 294.989 91.6086 296.675 91.6086Z" fill="#1D1D1B" transform="matrix(1.00032 0 0 1 725 995.058)"/><path d="M342.317 180.818 323.775 180.818 312.234 157.803 308.993 151.32 305.751 144.707 320.663 138.418 316.838 149.439 330.712 158.127 335.315 167.139Z" fill="#1D1D1B" transform="matrix(1.00032 0 0 1 725 995.058)"/><path d="M120.005 180.883 102.89 180.883 102.89 91.5438 143.475 91.5438C148.078 91.5438 152.227 92.3218 155.988 93.813 159.748 95.3041 163.054 97.4436 165.712 100.167 168.371 102.89 170.51 106.131 172.001 109.956 173.492 113.717 174.27 117.866 174.27 122.339 174.27 129.082 172.585 134.982 169.213 140.039 165.842 145.096 161.369 148.726 155.728 150.931 163.249 160.85 170.64 170.899 177.966 180.948L157.544 180.948C153.978 176.345 150.477 171.612 147.105 166.879 143.734 162.147 140.298 157.349 136.862 152.487L119.941 152.487 119.941 180.883ZM120.005 137.316 143.475 137.316C145.031 137.316 146.652 137.056 148.272 136.408 149.958 135.76 151.449 134.852 152.681 133.555 153.978 132.324 155.08 130.768 155.923 128.887 156.766 127.007 157.219 124.803 157.219 122.275 157.219 120.978 157.09 119.422 156.766 117.607 156.441 115.791 155.793 114.106 154.821 112.485 153.913 110.864 152.487 109.438 150.671 108.271 148.921 107.168 146.522 106.585 143.475 106.585L120.005 106.585 120.005 137.316Z" fill="#1D1D1B" transform="matrix(1.00032 0 0 1 725 995.058)"/><path d="M85.7737 118.838C83.4397 113.392 80.2629 108.724 76.2433 104.64 74.7521 103.149 73.1313 101.723 71.3808 100.491 68.593 98.3512 65.4162 96.5359 62.0449 95.0448 61.3966 94.7854 60.6834 94.4613 60.0351 94.2668 59.3219 94.0074 58.6088 93.7481 57.8956 93.5536 53.6815 92.1921 49.3377 91.5438 44.7994 91.5438 38.5755 91.5438 32.8054 92.7108 27.4242 95.0448 24.0529 96.5359 20.8761 98.3512 18.0235 100.491 16.3378 101.787 14.7819 103.149 13.2259 104.64 9.20625 108.66 5.96461 113.392 3.63063 118.838 1.29665 124.284 0.129665 130.119 0.129665 136.214L0.129665 137.121C0.0648327 137.381 0.129665 137.64 0.129665 137.964 0.129665 138.029 0.129665 138.159 0.129665 138.223 0.324164 143.604 1.23182 148.726 2.91747 153.589 4.47346 157.997 6.67777 161.952 9.53041 165.453 10.1787 166.296 10.8919 167.074 11.6051 167.787 15.495 171.872 20.4871 175.048 26.4517 177.382 31.6384 179.457 37.7326 180.624 44.6049 180.883 44.7346 180.948 44.8642 180.883 44.9291 180.883 51.8662 180.624 57.8956 179.522 63.0822 177.382 69.0469 175.048 73.9741 171.807 77.9289 167.787 78.6421 167.074 79.3553 166.296 80.0036 165.453 82.8562 161.952 85.0605 158.062 86.6165 153.589 88.3022 148.726 89.2098 143.604 89.4043 138.223L89.4043 137.964C89.4043 137.64 89.4692 137.381 89.4692 137.121 89.4692 136.797 89.4692 136.538 89.4692 136.214 89.3395 130.119 88.1077 124.284 85.7737 118.838M70.3435 147.17C68.8523 150.606 66.9074 153.654 64.3789 156.247 64.1844 156.441 64.0547 156.636 63.8602 156.701 63.6657 156.83 63.5361 157.025 63.4064 157.155 63.0822 157.479 62.7581 157.738 62.3691 158.062L62.3691 158.062C61.3318 158.905 60.2296 159.683 59.1274 160.461 58.5439 160.85 57.9605 161.174 57.3121 161.498 57.0528 161.693 56.7286 161.822 56.4045 161.952 56.0803 162.082 55.821 162.211 55.4968 162.341 55.043 162.536 54.5891 162.73 54.2002 162.86L54.1353 162.86C53.7463 163.054 53.2925 163.184 52.8387 163.314 50.2454 164.156 47.4576 164.61 44.6049 164.61 40.7798 164.61 37.1492 163.832 33.7778 162.276 32.935 161.887 32.0922 161.498 31.3142 161.044 29.7582 160.202 28.2671 159.1 26.9056 157.997 26.5166 157.673 26.1924 157.414 25.8683 157.09 25.6738 156.96 25.5441 156.83 25.4144 156.636 25.2199 156.506 25.0254 156.312 24.8958 156.182 22.3673 153.589 20.3575 150.542 18.8663 147.105 17.44 143.669 16.662 140.039 16.662 136.214 16.662 132.388 17.44 128.693 18.8663 125.257 20.3575 121.821 22.3673 118.774 24.8958 116.245 25.2199 115.921 25.5441 115.597 25.9331 115.337 26.2573 114.948 26.5814 114.689 26.9056 114.43 28.2671 113.263 29.7582 112.225 31.3142 111.318 32.0922 110.864 32.935 110.475 33.7778 110.086 37.1492 108.53 40.7798 107.817 44.6049 107.817 47.5224 107.817 50.2454 108.271 52.8387 109.113 53.2925 109.243 53.7463 109.438 54.1353 109.567L54.2002 109.567C54.5891 109.762 55.043 109.956 55.4968 110.086 56.0803 110.41 56.6638 110.669 57.3121 110.994 57.8956 111.318 58.5439 111.642 59.1274 112.031 60.2296 112.744 61.3318 113.522 62.3691 114.43L62.3691 114.43C62.6932 114.689 63.0174 115.013 63.3416 115.337 63.6657 115.597 64.0547 115.921 64.3789 116.245 66.8425 118.838 68.8523 121.821 70.3435 125.257 71.8347 128.758 72.6126 132.388 72.6126 136.214 72.5478 140.104 71.7698 143.734 70.3435 147.17" fill="#1D1D1B" transform="matrix(1.00032 0 0 1 725 995.058)"/><path d="M32.7405 134.398C32.7405 134.398 52.2552 134.139 61.3966 144.836 70.538 155.534 78.0586 176.799 93.6184 178.744 93.6184 178.744 70.8622 187.172 54.7188 162.276 47.1334 148.856 43.6973 136.214 32.7405 134.398" fill="#1D1D1B" transform="matrix(1.00032 0 0 1 725 995.058)"/><path d="M330.712 158.127 312.234 157.803 279.688 157.284 280.596 155.339 305.751 144.707 320.663 138.418 325.72 148.272 325.72 148.337Z" fill="#FFD000" transform="matrix(1.00032 0 0 1 725 995.058)"/></g></g></g></g></svg>