<svg width="1085" height="1536" xmlns="http://www.w3.org/2000/svg" xmlns:xlink="http://www.w3.org/1999/xlink" overflow="hidden"><defs><clipPath id="clip0"><rect x="1841" y="897" width="1085" height="1536"/></clipPath><clipPath id="clip1"><rect x="1953" y="1468" width="860" height="860"/></clipPath><clipPath id="clip2"><rect x="1953" y="1468" width="860" height="860"/></clipPath><clipPath id="clip3"><rect x="1953" y="1468" width="860" height="860"/></clipPath><clipPath id="clip4"><rect x="2527" y="994" width="256" height="197"/></clipPath><clipPath id="clip5"><rect x="2527" y="994" width="256" height="197"/></clipPath><clipPath id="clip6"><rect x="2527" y="994" width="256" height="197"/></clipPath><clipPath id="clip7"><rect x="1971" y="994" width="215" height="197"/></clipPath><clipPath id="clip8"><rect x="1971" y="994" width="215" height="197"/></clipPath><clipPath id="clip9"><rect x="1971" y="994" width="215" height="197"/></clipPath></defs><g clip-path="url(#clip0)" transform="translate(-1841 -897)"><path d="M1854 1013.53C1854 949.17 1906.17 897 1970.53 897L2797.47 897C2861.83 897 2914 949.17 2914 1013.53L2914 2316.47C2914 2380.83 2861.83 2433 2797.47 2433L1970.53 2433C1906.17 2433 1854 2380.83 1854 2316.47Z" fill="#0D60A8" fill-rule="evenodd"/><path d="M1921 1486.38C1921 1458.56 1943.56 1436 1971.38 1436L2795.62 1436C2823.44 1436 2846 1458.56 2846 1486.38L2846 2310.62C2846 2338.44 2823.44 2361 2795.62 2361L1971.38 2361C1943.56 2361 1921 2338.44 1921 2310.62Z" fill="#FFFFFF" fill-rule="evenodd"/><g clip-path="url(#clip1)"><g clip-path="url(#clip2)"><g clip-path="url(#clip3)"><path d="M1954 1469 2813 1469 2813 2328 1954 2328Z" fill="#FFFFFF"/><path d="M1954 1469 1980.03 1469 1980.03 1495.03 1954 1495.03Z"/><path d="M1980.03 1469 2006.06 1469 2006.06 1495.03 1980.03 1495.03Z"/><path d="M2006.06 1469 2032.09 1469 2032.09 1495.03 2006.06 1495.03Z"/><path d="M2032.09 1469 2058.12 1469 2058.12 1495.03 2032.09 1495.03Z"/><path d="M2058.12 1469 2084.15 1469 2084.15 1495.03 2058.12 1495.03Z"/><path d="M2084.15 1469 2110.18 1469 2110.18 1495.03 2084.15 1495.03Z"/><path d="M2110.18 1469 2136.21 1469 2136.21 1495.03 2110.18 1495.03Z"/><path d="M2188.27 1469 2214.3 1469 2214.3 1495.03 2188.27 1495.03Z"/><path d="M2344.45 1469 2370.48 1469 2370.48 1495.03 2344.45 1495.03Z"/><path d="M2370.48 1469 2396.52 1469 2396.52 1495.03 2370.48 1495.03Z"/><path d="M2396.52 1469 2422.55 1469 2422.55 1495.03 2396.52 1495.03Z"/><path d="M2448.58 1469 2474.61 1469 2474.61 1495.03 2448.58 1495.03Z"/><path d="M2526.67 1469 2552.7 1469 2552.7 1495.03 2526.67 1495.03Z"/><path d="M2552.7 1469 2578.73 1469 2578.73 1495.03 2552.7 1495.03Z"/><path d="M2630.79 1469 2656.82 1469 2656.82 1495.03 2630.79 1495.03Z"/><path d="M2656.82 1469 2682.85 1469 2682.85 1495.03 2656.82 1495.03Z"/><path d="M2682.85 1469 2708.88 1469 2708.88 1495.03 2682.85 1495.03Z"/><path d="M2708.88 1469 2734.91 1469 2734.91 1495.03 2708.88 1495.03Z"/><path d="M2734.91 1469 2760.94 1469 2760.94 1495.03 2734.91 1495.03Z"/><path d="M2760.94 1469 2786.97 1469 2786.97 1495.03 2760.94 1495.03Z"/><path d="M2786.97 1469 2813 1469 2813 1495.03 2786.97 1495.03Z"/><path d="M1954 1495.03 1980.03 1495.03 1980.03 1521.06 1954 1521.06Z"/><path d="M2110.18 1495.03 2136.21 1495.03 2136.21 1521.06 2110.18 1521.06Z"/><path d="M2162.24 1495.03 2188.27 1495.03 2188.27 1521.06 2162.24 1521.06Z"/><path d="M2188.27 1495.03 2214.3 1495.03 2214.3 1521.06 2188.27 1521.06Z"/><path d="M2240.33 1495.03 2266.36 1495.03 2266.36 1521.06 2240.33 1521.06Z"/><path d="M2266.36 1495.03 2292.39 1495.03 2292.39 1521.06 2266.36 1521.06Z"/><path d="M2422.55 1495.03 2448.58 1495.03 2448.58 1521.06 2422.55 1521.06Z"/><path d="M2474.61 1495.03 2500.64 1495.03 2500.64 1521.06 2474.61 1521.06Z"/><path d="M2500.64 1495.03 2526.67 1495.03 2526.67 1521.06 2500.64 1521.06Z"/><path d="M2630.79 1495.03 2656.82 1495.03 2656.82 1521.06 2630.79 1521.06Z"/><path d="M2786.97 1495.03 2813 1495.03 2813 1521.06 2786.97 1521.06Z"/><path d="M1954 1521.06 1980.03 1521.06 1980.03 1547.09 1954 1547.09Z"/><path d="M2006.06 1521.06 2032.09 1521.06 2032.09 1547.09 2006.06 1547.09Z"/><path d="M2032.09 1521.06 2058.12 1521.06 2058.12 1547.09 2032.09 1547.09Z"/><path d="M2058.12 1521.06 2084.15 1521.06 2084.15 1547.09 2058.12 1547.09Z"/><path d="M2110.18 1521.06 2136.21 1521.06 2136.21 1547.09 2110.18 1547.09Z"/><path d="M2188.27 1521.06 2214.3 1521.06 2214.3 1547.09 2188.27 1547.09Z"/><path d="M2214.3 1521.06 2240.33 1521.06 2240.33 1547.09 2214.3 1547.09Z"/><path d="M2240.33 1521.06 2266.36 1521.06 2266.36 1547.09 2240.33 1547.09Z"/><path d="M2318.42 1521.06 2344.45 1521.06 2344.45 1547.09 2318.42 1547.09Z"/><path d="M2370.48 1521.06 2396.52 1521.06 2396.52 1547.09 2370.48 1547.09Z"/><path d="M2422.55 1521.06 2448.58 1521.06 2448.58 1547.09 2422.55 1547.09Z"/><path d="M2448.58 1521.06 2474.61 1521.06 2474.61 1547.09 2448.58 1547.09Z"/><path d="M2474.61 1521.06 2500.64 1521.06 2500.64 1547.09 2474.61 1547.09Z"/><path d="M2500.64 1521.06 2526.67 1521.06 2526.67 1547.09 2500.64 1547.09Z"/><path d="M2526.67 1521.06 2552.7 1521.06 2552.7 1547.09 2526.67 1547.09Z"/><path d="M2630.79 1521.06 2656.82 1521.06 2656.82 1547.09 2630.79 1547.09Z"/><path d="M2682.85 1521.06 2708.88 1521.06 2708.88 1547.09 2682.85 1547.09Z"/><path d="M2708.88 1521.06 2734.91 1521.06 2734.91 1547.09 2708.88 1547.09Z"/><path d="M2734.91 1521.06 2760.94 1521.06 2760.94 1547.09 2734.91 1547.09Z"/><path d="M2786.97 1521.06 2813 1521.06 2813 1547.09 2786.97 1547.09Z"/><path d="M1954 1547.09 1980.03 1547.09 1980.03 1573.12 1954 1573.12Z"/><path d="M2006.06 1547.09 2032.09 1547.09 2032.09 1573.12 2006.06 1573.12Z"/><path d="M2032.09 1547.09 2058.12 1547.09 2058.12 1573.12 2032.09 1573.12Z"/><path d="M2058.12 1547.09 2084.15 1547.09 2084.15 1573.12 2058.12 1573.12Z"/><path d="M2110.18 1547.09 2136.21 1547.09 2136.21 1573.12 2110.18 1573.12Z"/><path d="M2162.24 1547.09 2188.27 1547.09 2188.27 1573.12 2162.24 1573.12Z"/><path d="M2188.27 1547.09 2214.3 1547.09 2214.3 1573.12 2188.27 1573.12Z"/><path d="M2240.33 1547.09 2266.36 1547.09 2266.36 1573.12 2240.33 1573.12Z"/><path d="M2396.52 1547.09 2422.55 1547.09 2422.55 1573.12 2396.52 1573.12Z"/><path d="M2422.55 1547.09 2448.58 1547.09 2448.58 1573.12 2422.55 1573.12Z"/><path d="M2474.61 1547.09 2500.64 1547.09 2500.64 1573.12 2474.61 1573.12Z"/><path d="M2552.7 1547.09 2578.73 1547.09 2578.73 1573.12 2552.7 1573.12Z"/><path d="M2578.73 1547.09 2604.76 1547.09 2604.76 1573.12 2578.73 1573.12Z"/><path d="M2630.79 1547.09 2656.82 1547.09 2656.82 1573.12 2630.79 1573.12Z"/><path d="M2682.85 1547.09 2708.88 1547.09 2708.88 1573.12 2682.85 1573.12Z"/><path d="M2708.88 1547.09 2734.91 1547.09 2734.91 1573.12 2708.88 1573.12Z"/><path d="M2734.91 1547.09 2760.94 1547.09 2760.94 1573.12 2734.91 1573.12Z"/><path d="M2786.97 1547.09 2813 1547.09 2813 1573.12 2786.97 1573.12Z"/><path d="M1954 1573.12 1980.03 1573.12 1980.03 1599.15 1954 1599.15Z"/><path d="M2006.06 1573.12 2032.09 1573.12 2032.09 1599.15 2006.06 1599.15Z"/><path d="M2032.09 1573.12 2058.12 1573.12 2058.12 1599.15 2032.09 1599.15Z"/><path d="M2058.12 1573.12 2084.15 1573.12 2084.15 1599.15 2058.12 1599.15Z"/><path d="M2110.18 1573.12 2136.21 1573.12 2136.21 1599.15 2110.18 1599.15Z"/><path d="M2214.3 1573.12 2240.33 1573.12 2240.33 1599.15 2214.3 1599.15Z"/><path d="M2266.36 1573.12 2292.39 1573.12 2292.39 1599.15 2266.36 1599.15Z"/><path d="M2292.39 1573.12 2318.42 1573.12 2318.42 1599.15 2292.39 1599.15Z"/><path d="M2318.42 1573.12 2344.45 1573.12 2344.45 1599.15 2318.42 1599.15Z"/><path d="M2344.45 1573.12 2370.48 1573.12 2370.48 1599.15 2344.45 1599.15Z"/><path d="M2396.52 1573.12 2422.55 1573.12 2422.55 1599.15 2396.52 1599.15Z"/><path d="M2448.58 1573.12 2474.61 1573.12 2474.61 1599.15 2448.58 1599.15Z"/><path d="M2552.7 1573.12 2578.73 1573.12 2578.73 1599.15 2552.7 1599.15Z"/><path d="M2630.79 1573.12 2656.82 1573.12 2656.82 1599.15 2630.79 1599.15Z"/><path d="M2682.85 1573.12 2708.88 1573.12 2708.88 1599.15 2682.85 1599.15Z"/><path d="M2708.88 1573.12 2734.91 1573.12 2734.91 1599.15 2708.88 1599.15Z"/><path d="M2734.91 1573.12 2760.94 1573.12 2760.94 1599.15 2734.91 1599.15Z"/><path d="M2786.97 1573.12 2813 1573.12 2813 1599.15 2786.97 1599.15Z"/><path d="M1954 1599.15 1980.03 1599.15 1980.03 1625.18 1954 1625.18Z"/><path d="M2110.18 1599.15 2136.21 1599.15 2136.21 1625.18 2110.18 1625.18Z"/><path d="M2162.24 1599.15 2188.27 1599.15 2188.27 1625.18 2162.24 1625.18Z"/><path d="M2214.3 1599.15 2240.33 1599.15 2240.33 1625.18 2214.3 1625.18Z"/><path d="M2292.39 1599.15 2318.42 1599.15 2318.42 1625.18 2292.39 1625.18Z"/><path d="M2318.42 1599.15 2344.45 1599.15 2344.45 1625.18 2318.42 1625.18Z"/><path d="M2344.45 1599.15 2370.48 1599.15 2370.48 1625.18 2344.45 1625.18Z"/><path d="M2422.55 1599.15 2448.58 1599.15 2448.58 1625.18 2422.55 1625.18Z"/><path d="M2526.67 1599.15 2552.7 1599.15 2552.7 1625.18 2526.67 1625.18Z"/><path d="M2578.73 1599.15 2604.76 1599.15 2604.76 1625.18 2578.73 1625.18Z"/><path d="M2630.79 1599.15 2656.82 1599.15 2656.82 1625.18 2630.79 1625.18Z"/><path d="M2786.97 1599.15 2813 1599.15 2813 1625.18 2786.97 1625.18Z"/><path d="M1954 1625.18 1980.03 1625.18 1980.03 1651.21 1954 1651.21Z"/><path d="M1980.03 1625.18 2006.06 1625.18 2006.06 1651.21 1980.03 1651.21Z"/><path d="M2006.06 1625.18 2032.09 1625.18 2032.09 1651.21 2006.06 1651.21Z"/><path d="M2032.09 1625.18 2058.12 1625.18 2058.12 1651.21 2032.09 1651.21Z"/><path d="M2058.12 1625.18 2084.15 1625.18 2084.15 1651.21 2058.12 1651.21Z"/><path d="M2084.15 1625.18 2110.18 1625.18 2110.18 1651.21 2084.15 1651.21Z"/><path d="M2110.18 1625.18 2136.21 1625.18 2136.21 1651.21 2110.18 1651.21Z"/><path d="M2162.24 1625.18 2188.27 1625.18 2188.27 1651.21 2162.24 1651.21Z"/><path d="M2214.3 1625.18 2240.33 1625.18 2240.33 1651.21 2214.3 1651.21Z"/><path d="M2266.36 1625.18 2292.39 1625.18 2292.39 1651.21 2266.36 1651.21Z"/><path d="M2318.42 1625.18 2344.45 1625.18 2344.45 1651.21 2318.42 1651.21Z"/><path d="M2370.48 1625.18 2396.52 1625.18 2396.52 1651.21 2370.48 1651.21Z"/><path d="M2422.55 1625.18 2448.58 1625.18 2448.58 1651.21 2422.55 1651.21Z"/><path d="M2474.61 1625.18 2500.64 1625.18 2500.64 1651.21 2474.61 1651.21Z"/><path d="M2526.67 1625.18 2552.7 1625.18 2552.7 1651.21 2526.67 1651.21Z"/><path d="M2578.73 1625.18 2604.76 1625.18 2604.76 1651.21 2578.73 1651.21Z"/><path d="M2630.79 1625.18 2656.82 1625.18 2656.82 1651.21 2630.79 1651.21Z"/><path d="M2656.82 1625.18 2682.85 1625.18 2682.85 1651.21 2656.82 1651.21Z"/><path d="M2682.85 1625.18 2708.88 1625.18 2708.88 1651.21 2682.85 1651.21Z"/><path d="M2708.88 1625.18 2734.91 1625.18 2734.91 1651.21 2708.88 1651.21Z"/><path d="M2734.91 1625.18 2760.94 1625.18 2760.94 1651.21 2734.91 1651.21Z"/><path d="M2760.94 1625.18 2786.97 1625.18 2786.97 1651.21 2760.94 1651.21Z"/><path d="M2786.97 1625.18 2813 1625.18 2813 1651.21 2786.97 1651.21Z"/><path d="M2266.36 1651.21 2292.39 1651.21 2292.39 1677.24 2266.36 1677.24Z"/><path d="M2292.39 1651.21 2318.42 1651.21 2318.42 1677.24 2292.39 1677.24Z"/><path d="M2500.64 1651.21 2526.67 1651.21 2526.67 1677.24 2500.64 1677.24Z"/><path d="M2526.67 1651.21 2552.7 1651.21 2552.7 1677.24 2526.67 1677.24Z"/><path d="M2552.7 1651.21 2578.73 1651.21 2578.73 1677.24 2552.7 1677.24Z"/><path d="M1954 1677.24 1980.03 1677.24 1980.03 1703.27 1954 1703.27Z"/><path d="M1980.03 1677.24 2006.06 1677.24 2006.06 1703.27 1980.03 1703.27Z"/><path d="M2006.06 1677.24 2032.09 1677.24 2032.09 1703.27 2006.06 1703.27Z"/><path d="M2032.09 1677.24 2058.12 1677.24 2058.12 1703.27 2032.09 1703.27Z"/><path d="M2058.12 1677.24 2084.15 1677.24 2084.15 1703.27 2058.12 1703.27Z"/><path d="M2110.18 1677.24 2136.21 1677.24 2136.21 1703.27 2110.18 1703.27Z"/><path d="M2136.21 1677.24 2162.24 1677.24 2162.24 1703.27 2136.21 1703.27Z"/><path d="M2162.24 1677.24 2188.27 1677.24 2188.27 1703.27 2162.24 1703.27Z"/><path d="M2188.27 1677.24 2214.3 1677.24 2214.3 1703.27 2188.27 1703.27Z"/><path d="M2214.3 1677.24 2240.33 1677.24 2240.33 1703.27 2214.3 1703.27Z"/><path d="M2266.36 1677.24 2292.39 1677.24 2292.39 1703.27 2266.36 1703.27Z"/><path d="M2318.42 1677.24 2344.45 1677.24 2344.45 1703.27 2318.42 1703.27Z"/><path d="M2344.45 1677.24 2370.48 1677.24 2370.48 1703.27 2344.45 1703.27Z"/><path d="M2370.48 1677.24 2396.52 1677.24 2396.52 1703.27 2370.48 1703.27Z"/><path d="M2396.52 1677.24 2422.55 1677.24 2422.55 1703.27 2396.52 1703.27Z"/><path d="M2422.55 1677.24 2448.58 1677.24 2448.58 1703.27 2422.55 1703.27Z"/><path d="M2474.61 1677.24 2500.64 1677.24 2500.64 1703.27 2474.61 1703.27Z"/><path d="M2526.67 1677.24 2552.7 1677.24 2552.7 1703.27 2526.67 1703.27Z"/><path d="M2552.7 1677.24 2578.73 1677.24 2578.73 1703.27 2552.7 1703.27Z"/><path d="M2578.73 1677.24 2604.76 1677.24 2604.76 1703.27 2578.73 1703.27Z"/><path d="M2604.76 1677.24 2630.79 1677.24 2630.79 1703.27 2604.76 1703.27Z"/><path d="M2656.82 1677.24 2682.85 1677.24 2682.85 1703.27 2656.82 1703.27Z"/><path d="M2708.88 1677.24 2734.91 1677.24 2734.91 1703.27 2708.88 1703.27Z"/><path d="M2760.94 1677.24 2786.97 1677.24 2786.97 1703.27 2760.94 1703.27Z"/><path d="M1980.03 1703.27 2006.06 1703.27 2006.06 1729.3 1980.03 1729.3Z"/><path d="M2032.09 1703.27 2058.12 1703.27 2058.12 1729.3 2032.09 1729.3Z"/><path d="M2188.27 1703.27 2214.3 1703.27 2214.3 1729.3 2188.27 1729.3Z"/><path d="M2448.58 1703.27 2474.61 1703.27 2474.61 1729.3 2448.58 1729.3Z"/><path d="M2552.7 1703.27 2578.73 1703.27 2578.73 1729.3 2552.7 1729.3Z"/><path d="M2578.73 1703.27 2604.76 1703.27 2604.76 1729.3 2578.73 1729.3Z"/><path d="M2630.79 1703.27 2656.82 1703.27 2656.82 1729.3 2630.79 1729.3Z"/><path d="M2734.91 1703.27 2760.94 1703.27 2760.94 1729.3 2734.91 1729.3Z"/><path d="M2760.94 1703.27 2786.97 1703.27 2786.97 1729.3 2760.94 1729.3Z"/><path d="M2786.97 1703.27 2813 1703.27 2813 1729.3 2786.97 1729.3Z"/><path d="M1980.03 1729.3 2006.06 1729.3 2006.06 1755.33 1980.03 1755.33Z"/><path d="M2006.06 1729.3 2032.09 1729.3 2032.09 1755.33 2006.06 1755.33Z"/><path d="M2084.15 1729.3 2110.18 1729.3 2110.18 1755.33 2084.15 1755.33Z"/><path d="M2110.18 1729.3 2136.21 1729.3 2136.21 1755.33 2110.18 1755.33Z"/><path d="M2136.21 1729.3 2162.24 1729.3 2162.24 1755.33 2136.21 1755.33Z"/><path d="M2188.27 1729.3 2214.3 1729.3 2214.3 1755.33 2188.27 1755.33Z"/><path d="M2240.33 1729.3 2266.36 1729.3 2266.36 1755.33 2240.33 1755.33Z"/><path d="M2266.36 1729.3 2292.39 1729.3 2292.39 1755.33 2266.36 1755.33Z"/><path d="M2344.45 1729.3 2370.48 1729.3 2370.48 1755.33 2344.45 1755.33Z"/><path d="M2396.52 1729.3 2422.55 1729.3 2422.55 1755.33 2396.52 1755.33Z"/><path d="M2422.55 1729.3 2448.58 1729.3 2448.58 1755.33 2422.55 1755.33Z"/><path d="M2500.64 1729.3 2526.67 1729.3 2526.67 1755.33 2500.64 1755.33Z"/><path d="M2526.67 1729.3 2552.7 1729.3 2552.7 1755.33 2526.67 1755.33Z"/><path d="M2630.79 1729.3 2656.82 1729.3 2656.82 1755.33 2630.79 1755.33Z"/><path d="M2656.82 1729.3 2682.85 1729.3 2682.85 1755.33 2656.82 1755.33Z"/><path d="M2708.88 1729.3 2734.91 1729.3 2734.91 1755.33 2708.88 1755.33Z"/><path d="M2760.94 1729.3 2786.97 1729.3 2786.97 1755.33 2760.94 1755.33Z"/><path d="M1954 1755.33 1980.03 1755.33 1980.03 1781.36 1954 1781.36Z"/><path d="M2006.06 1755.33 2032.09 1755.33 2032.09 1781.36 2006.06 1781.36Z"/><path d="M2032.09 1755.33 2058.12 1755.33 2058.12 1781.36 2032.09 1781.36Z"/><path d="M2084.15 1755.33 2110.18 1755.33 2110.18 1781.36 2084.15 1781.36Z"/><path d="M2136.21 1755.33 2162.24 1755.33 2162.24 1781.36 2136.21 1781.36Z"/><path d="M2188.27 1755.33 2214.3 1755.33 2214.3 1781.36 2188.27 1781.36Z"/><path d="M2214.3 1755.33 2240.33 1755.33 2240.33 1781.36 2214.3 1781.36Z"/><path d="M2240.33 1755.33 2266.36 1755.33 2266.36 1781.36 2240.33 1781.36Z"/><path d="M2318.42 1755.33 2344.45 1755.33 2344.45 1781.36 2318.42 1781.36Z"/><path d="M2344.45 1755.33 2370.48 1755.33 2370.48 1781.36 2344.45 1781.36Z"/><path d="M2422.55 1755.33 2448.58 1755.33 2448.58 1781.36 2422.55 1781.36Z"/><path d="M2500.64 1755.33 2526.67 1755.33 2526.67 1781.36 2500.64 1781.36Z"/><path d="M2526.67 1755.33 2552.7 1755.33 2552.7 1781.36 2526.67 1781.36Z"/><path d="M2604.76 1755.33 2630.79 1755.33 2630.79 1781.36 2604.76 1781.36Z"/><path d="M2734.91 1755.33 2760.94 1755.33 2760.94 1781.36 2734.91 1781.36Z"/><path d="M1954 1781.36 1980.03 1781.36 1980.03 1807.39 1954 1807.39Z"/><path d="M2006.06 1781.36 2032.09 1781.36 2032.09 1807.39 2006.06 1807.39Z"/><path d="M2032.09 1781.36 2058.12 1781.36 2058.12 1807.39 2032.09 1807.39Z"/><path d="M2058.12 1781.36 2084.15 1781.36 2084.15 1807.39 2058.12 1807.39Z"/><path d="M2110.18 1781.36 2136.21 1781.36 2136.21 1807.39 2110.18 1807.39Z"/><path d="M2136.21 1781.36 2162.24 1781.36 2162.24 1807.39 2136.21 1807.39Z"/><path d="M2162.24 1781.36 2188.27 1781.36 2188.27 1807.39 2162.24 1807.39Z"/><path d="M2188.27 1781.36 2214.3 1781.36 2214.3 1807.39 2188.27 1807.39Z"/><path d="M2240.33 1781.36 2266.36 1781.36 2266.36 1807.39 2240.33 1807.39Z"/><path d="M2344.45 1781.36 2370.48 1781.36 2370.48 1807.39 2344.45 1807.39Z"/><path d="M2370.48 1781.36 2396.52 1781.36 2396.52 1807.39 2370.48 1807.39Z"/><path d="M2396.52 1781.36 2422.55 1781.36 2422.55 1807.39 2396.52 1807.39Z"/><path d="M2422.55 1781.36 2448.58 1781.36 2448.58 1807.39 2422.55 1807.39Z"/><path d="M2448.58 1781.36 2474.61 1781.36 2474.61 1807.39 2448.58 1807.39Z"/><path d="M2474.61 1781.36 2500.64 1781.36 2500.64 1807.39 2474.61 1807.39Z"/><path d="M2552.7 1781.36 2578.73 1781.36 2578.73 1807.39 2552.7 1807.39Z"/><path d="M2578.73 1781.36 2604.76 1781.36 2604.76 1807.39 2578.73 1807.39Z"/><path d="M2604.76 1781.36 2630.79 1781.36 2630.79 1807.39 2604.76 1807.39Z"/><path d="M2656.82 1781.36 2682.85 1781.36 2682.85 1807.39 2656.82 1807.39Z"/><path d="M2682.85 1781.36 2708.88 1781.36 2708.88 1807.39 2682.85 1807.39Z"/><path d="M2708.88 1781.36 2734.91 1781.36 2734.91 1807.39 2708.88 1807.39Z"/><path d="M1954 1807.39 1980.03 1807.39 1980.03 1833.42 1954 1833.42Z"/><path d="M2006.06 1807.39 2032.09 1807.39 2032.09 1833.42 2006.06 1833.42Z"/><path d="M2058.12 1807.39 2084.15 1807.39 2084.15 1833.42 2058.12 1833.42Z"/><path d="M2084.15 1807.39 2110.18 1807.39 2110.18 1833.42 2084.15 1833.42Z"/><path d="M2136.21 1807.39 2162.24 1807.39 2162.24 1833.42 2136.21 1833.42Z"/><path d="M2188.27 1807.39 2214.3 1807.39 2214.3 1833.42 2188.27 1833.42Z"/><path d="M2214.3 1807.39 2240.33 1807.39 2240.33 1833.42 2214.3 1833.42Z"/><path d="M2266.36 1807.39 2292.39 1807.39 2292.39 1833.42 2266.36 1833.42Z"/><path d="M2292.39 1807.39 2318.42 1807.39 2318.42 1833.42 2292.39 1833.42Z"/><path d="M2318.42 1807.39 2344.45 1807.39 2344.45 1833.42 2318.42 1833.42Z"/><path d="M2448.58 1807.39 2474.61 1807.39 2474.61 1833.42 2448.58 1833.42Z"/><path d="M2552.7 1807.39 2578.73 1807.39 2578.73 1833.42 2552.7 1833.42Z"/><path d="M2630.79 1807.39 2656.82 1807.39 2656.82 1833.42 2630.79 1833.42Z"/><path d="M2760.94 1807.39 2786.97 1807.39 2786.97 1833.42 2760.94 1833.42Z"/><path d="M2786.97 1807.39 2813 1807.39 2813 1833.42 2786.97 1833.42Z"/><path d="M1980.03 1833.42 2006.06 1833.42 2006.06 1859.45 1980.03 1859.45Z"/><path d="M2006.06 1833.42 2032.09 1833.42 2032.09 1859.45 2006.06 1859.45Z"/><path d="M2058.12 1833.42 2084.15 1833.42 2084.15 1859.45 2058.12 1859.45Z"/><path d="M2084.15 1833.42 2110.18 1833.42 2110.18 1859.45 2084.15 1859.45Z"/><path d="M2110.18 1833.42 2136.21 1833.42 2136.21 1859.45 2110.18 1859.45Z"/><path d="M2188.27 1833.42 2214.3 1833.42 2214.3 1859.45 2188.27 1859.45Z"/><path d="M2214.3 1833.42 2240.33 1833.42 2240.33 1859.45 2214.3 1859.45Z"/><path d="M2292.39 1833.42 2318.42 1833.42 2318.42 1859.45 2292.39 1859.45Z"/><path d="M2318.42 1833.42 2344.45 1833.42 2344.45 1859.45 2318.42 1859.45Z"/><path d="M2344.45 1833.42 2370.48 1833.42 2370.48 1859.45 2344.45 1859.45Z"/><path d="M2370.48 1833.42 2396.52 1833.42 2396.52 1859.45 2370.48 1859.45Z"/><path d="M2474.61 1833.42 2500.64 1833.42 2500.64 1859.45 2474.61 1859.45Z"/><path d="M2526.67 1833.42 2552.7 1833.42 2552.7 1859.45 2526.67 1859.45Z"/><path d="M2604.76 1833.42 2630.79 1833.42 2630.79 1859.45 2604.76 1859.45Z"/><path d="M2682.85 1833.42 2708.88 1833.42 2708.88 1859.45 2682.85 1859.45Z"/><path d="M2760.94 1833.42 2786.97 1833.42 2786.97 1859.45 2760.94 1859.45Z"/><path d="M1980.03 1859.45 2006.06 1859.45 2006.06 1885.48 1980.03 1885.48Z"/><path d="M2006.06 1859.45 2032.09 1859.45 2032.09 1885.48 2006.06 1885.48Z"/><path d="M2032.09 1859.45 2058.12 1859.45 2058.12 1885.48 2032.09 1885.48Z"/><path d="M2058.12 1859.45 2084.15 1859.45 2084.15 1885.48 2058.12 1885.48Z"/><path d="M2136.21 1859.45 2162.24 1859.45 2162.24 1885.48 2136.21 1885.48Z"/><path d="M2266.36 1859.45 2292.39 1859.45 2292.39 1885.48 2266.36 1885.48Z"/><path d="M2292.39 1859.45 2318.42 1859.45 2318.42 1885.48 2292.39 1885.48Z"/><path d="M2422.55 1859.45 2448.58 1859.45 2448.58 1885.48 2422.55 1885.48Z"/><path d="M2448.58 1859.45 2474.61 1859.45 2474.61 1885.48 2448.58 1885.48Z"/><path d="M2474.61 1859.45 2500.64 1859.45 2500.64 1885.48 2474.61 1885.48Z"/><path d="M2500.64 1859.45 2526.67 1859.45 2526.67 1885.48 2500.64 1885.48Z"/><path d="M2526.67 1859.45 2552.7 1859.45 2552.7 1885.48 2526.67 1885.48Z"/><path d="M2552.7 1859.45 2578.73 1859.45 2578.73 1885.48 2552.7 1885.48Z"/><path d="M2604.76 1859.45 2630.79 1859.45 2630.79 1885.48 2604.76 1885.48Z"/><path d="M2630.79 1859.45 2656.82 1859.45 2656.82 1885.48 2630.79 1885.48Z"/><path d="M2734.91 1859.45 2760.94 1859.45 2760.94 1885.48 2734.91 1885.48Z"/><path d="M2006.06 1885.48 2032.09 1885.48 2032.09 1911.52 2006.06 1911.52Z"/><path d="M2032.09 1885.48 2058.12 1885.48 2058.12 1911.52 2032.09 1911.52Z"/><path d="M2084.15 1885.48 2110.18 1885.48 2110.18 1911.52 2084.15 1911.52Z"/><path d="M2110.18 1885.48 2136.21 1885.48 2136.21 1911.52 2110.18 1911.52Z"/><path d="M2214.3 1885.48 2240.33 1885.48 2240.33 1911.52 2214.3 1911.52Z"/><path d="M2266.36 1885.48 2292.39 1885.48 2292.39 1911.52 2266.36 1911.52Z"/><path d="M2318.42 1885.48 2344.45 1885.48 2344.45 1911.52 2318.42 1911.52Z"/><path d="M2344.45 1885.48 2370.48 1885.48 2370.48 1911.52 2344.45 1911.52Z"/><path d="M2370.48 1885.48 2396.52 1885.48 2396.52 1911.52 2370.48 1911.52Z"/><path d="M2396.52 1885.48 2422.55 1885.48 2422.55 1911.52 2396.52 1911.52Z"/><path d="M2422.55 1885.48 2448.58 1885.48 2448.58 1911.52 2422.55 1911.52Z"/><path d="M2474.61 1885.48 2500.64 1885.48 2500.64 1911.52 2474.61 1911.52Z"/><path d="M2552.7 1885.48 2578.73 1885.48 2578.73 1911.52 2552.7 1911.52Z"/><path d="M2578.73 1885.48 2604.76 1885.48 2604.76 1911.52 2578.73 1911.52Z"/><path d="M2604.76 1885.48 2630.79 1885.48 2630.79 1911.52 2604.76 1911.52Z"/><path d="M2656.82 1885.48 2682.85 1885.48 2682.85 1911.52 2656.82 1911.52Z"/><path d="M2682.85 1885.48 2708.88 1885.48 2708.88 1911.52 2682.85 1911.52Z"/><path d="M2760.94 1885.48 2786.97 1885.48 2786.97 1911.52 2760.94 1911.52Z"/><path d="M1954 1911.52 1980.03 1911.52 1980.03 1937.55 1954 1937.55Z"/><path d="M2084.15 1911.52 2110.18 1911.52 2110.18 1937.55 2084.15 1937.55Z"/><path d="M2448.58 1911.52 2474.61 1911.52 2474.61 1937.55 2448.58 1937.55Z"/><path d="M2500.64 1911.52 2526.67 1911.52 2526.67 1937.55 2500.64 1937.55Z"/><path d="M2526.67 1911.52 2552.7 1911.52 2552.7 1937.55 2526.67 1937.55Z"/><path d="M2552.7 1911.52 2578.73 1911.52 2578.73 1937.55 2552.7 1937.55Z"/><path d="M2630.79 1911.52 2656.82 1911.52 2656.82 1937.55 2630.79 1937.55Z"/><path d="M2708.88 1911.52 2734.91 1911.52 2734.91 1937.55 2708.88 1937.55Z"/><path d="M2760.94 1911.52 2786.97 1911.52 2786.97 1937.55 2760.94 1937.55Z"/><path d="M2786.97 1911.52 2813 1911.52 2813 1937.55 2786.97 1937.55Z"/><path d="M1980.03 1937.55 2006.06 1937.55 2006.06 1963.58 1980.03 1963.58Z"/><path d="M2006.06 1937.55 2032.09 1937.55 2032.09 1963.58 2006.06 1963.58Z"/><path d="M2084.15 1937.55 2110.18 1937.55 2110.18 1963.58 2084.15 1963.58Z"/><path d="M2110.18 1937.55 2136.21 1937.55 2136.21 1963.58 2110.18 1963.58Z"/><path d="M2162.24 1937.55 2188.27 1937.55 2188.27 1963.58 2162.24 1963.58Z"/><path d="M2214.3 1937.55 2240.33 1937.55 2240.33 1963.58 2214.3 1963.58Z"/><path d="M2240.33 1937.55 2266.36 1937.55 2266.36 1963.58 2240.33 1963.58Z"/><path d="M2266.36 1937.55 2292.39 1937.55 2292.39 1963.58 2266.36 1963.58Z"/><path d="M2344.45 1937.55 2370.48 1937.55 2370.48 1963.58 2344.45 1963.58Z"/><path d="M2422.55 1937.55 2448.58 1937.55 2448.58 1963.58 2422.55 1963.58Z"/><path d="M2474.61 1937.55 2500.64 1937.55 2500.64 1963.58 2474.61 1963.58Z"/><path d="M2630.79 1937.55 2656.82 1937.55 2656.82 1963.58 2630.79 1963.58Z"/><path d="M2656.82 1937.55 2682.85 1937.55 2682.85 1963.58 2656.82 1963.58Z"/><path d="M2682.85 1937.55 2708.88 1937.55 2708.88 1963.58 2682.85 1963.58Z"/><path d="M2708.88 1937.55 2734.91 1937.55 2734.91 1963.58 2708.88 1963.58Z"/><path d="M2760.94 1937.55 2786.97 1937.55 2786.97 1963.58 2760.94 1963.58Z"/><path d="M1954 1963.58 1980.03 1963.58 1980.03 1989.61 1954 1989.61Z"/><path d="M1980.03 1963.58 2006.06 1963.58 2006.06 1989.61 1980.03 1989.61Z"/><path d="M2084.15 1963.58 2110.18 1963.58 2110.18 1989.61 2084.15 1989.61Z"/><path d="M2136.21 1963.58 2162.24 1963.58 2162.24 1989.61 2136.21 1989.61Z"/><path d="M2240.33 1963.58 2266.36 1963.58 2266.36 1989.61 2240.33 1989.61Z"/><path d="M2318.42 1963.58 2344.45 1963.58 2344.45 1989.61 2318.42 1989.61Z"/><path d="M2344.45 1963.58 2370.48 1963.58 2370.48 1989.61 2344.45 1989.61Z"/><path d="M2422.55 1963.58 2448.58 1963.58 2448.58 1989.61 2422.55 1989.61Z"/><path d="M2500.64 1963.58 2526.67 1963.58 2526.67 1989.61 2500.64 1989.61Z"/><path d="M2552.7 1963.58 2578.73 1963.58 2578.73 1989.61 2552.7 1989.61Z"/><path d="M2578.73 1963.58 2604.76 1963.58 2604.76 1989.61 2578.73 1989.61Z"/><path d="M2604.76 1963.58 2630.79 1963.58 2630.79 1989.61 2604.76 1989.61Z"/><path d="M2682.85 1963.58 2708.88 1963.58 2708.88 1989.61 2682.85 1989.61Z"/><path d="M2734.91 1963.58 2760.94 1963.58 2760.94 1989.61 2734.91 1989.61Z"/><path d="M2006.06 1989.61 2032.09 1989.61 2032.09 2015.64 2006.06 2015.64Z"/><path d="M2032.09 1989.61 2058.12 1989.61 2058.12 2015.64 2032.09 2015.64Z"/><path d="M2058.12 1989.61 2084.15 1989.61 2084.15 2015.64 2058.12 2015.64Z"/><path d="M2110.18 1989.61 2136.21 1989.61 2136.21 2015.64 2110.18 2015.64Z"/><path d="M2136.21 1989.61 2162.24 1989.61 2162.24 2015.64 2136.21 2015.64Z"/><path d="M2240.33 1989.61 2266.36 1989.61 2266.36 2015.64 2240.33 2015.64Z"/><path d="M2344.45 1989.61 2370.48 1989.61 2370.48 2015.64 2344.45 2015.64Z"/><path d="M2370.48 1989.61 2396.52 1989.61 2396.52 2015.64 2370.48 2015.64Z"/><path d="M2396.52 1989.61 2422.55 1989.61 2422.55 2015.64 2396.52 2015.64Z"/><path d="M2422.55 1989.61 2448.58 1989.61 2448.58 2015.64 2422.55 2015.64Z"/><path d="M2474.61 1989.61 2500.64 1989.61 2500.64 2015.64 2474.61 2015.64Z"/><path d="M2578.73 1989.61 2604.76 1989.61 2604.76 2015.64 2578.73 2015.64Z"/><path d="M2604.76 1989.61 2630.79 1989.61 2630.79 2015.64 2604.76 2015.64Z"/><path d="M2656.82 1989.61 2682.85 1989.61 2682.85 2015.64 2656.82 2015.64Z"/><path d="M2682.85 1989.61 2708.88 1989.61 2708.88 2015.64 2682.85 2015.64Z"/><path d="M2760.94 1989.61 2786.97 1989.61 2786.97 2015.64 2760.94 2015.64Z"/><path d="M1954 2015.64 1980.03 2015.64 1980.03 2041.67 1954 2041.67Z"/><path d="M2136.21 2015.64 2162.24 2015.64 2162.24 2041.67 2136.21 2041.67Z"/><path d="M2188.27 2015.64 2214.3 2015.64 2214.3 2041.67 2188.27 2041.67Z"/><path d="M2214.3 2015.64 2240.33 2015.64 2240.33 2041.67 2214.3 2041.67Z"/><path d="M2266.36 2015.64 2292.39 2015.64 2292.39 2041.67 2266.36 2041.67Z"/><path d="M2292.39 2015.64 2318.42 2015.64 2318.42 2041.67 2292.39 2041.67Z"/><path d="M2318.42 2015.64 2344.45 2015.64 2344.45 2041.67 2318.42 2041.67Z"/><path d="M2448.58 2015.64 2474.61 2015.64 2474.61 2041.67 2448.58 2041.67Z"/><path d="M2526.67 2015.64 2552.7 2015.64 2552.7 2041.67 2526.67 2041.67Z"/><path d="M2552.7 2015.64 2578.73 2015.64 2578.73 2041.67 2552.7 2041.67Z"/><path d="M2604.76 2015.64 2630.79 2015.64 2630.79 2041.67 2604.76 2041.67Z"/><path d="M2630.79 2015.64 2656.82 2015.64 2656.82 2041.67 2630.79 2041.67Z"/><path d="M2708.88 2015.64 2734.91 2015.64 2734.91 2041.67 2708.88 2041.67Z"/><path d="M2760.94 2015.64 2786.97 2015.64 2786.97 2041.67 2760.94 2041.67Z"/><path d="M2786.97 2015.64 2813 2015.64 2813 2041.67 2786.97 2041.67Z"/><path d="M1954 2041.67 1980.03 2041.67 1980.03 2067.7 1954 2067.7Z"/><path d="M2006.06 2041.67 2032.09 2041.67 2032.09 2067.7 2006.06 2067.7Z"/><path d="M2058.12 2041.67 2084.15 2041.67 2084.15 2067.7 2058.12 2067.7Z"/><path d="M2084.15 2041.67 2110.18 2041.67 2110.18 2067.7 2084.15 2067.7Z"/><path d="M2110.18 2041.67 2136.21 2041.67 2136.21 2067.7 2110.18 2067.7Z"/><path d="M2136.21 2041.67 2162.24 2041.67 2162.24 2067.7 2136.21 2067.7Z"/><path d="M2292.39 2041.67 2318.42 2041.67 2318.42 2067.7 2292.39 2067.7Z"/><path d="M2318.42 2041.67 2344.45 2041.67 2344.45 2067.7 2318.42 2067.7Z"/><path d="M2344.45 2041.67 2370.48 2041.67 2370.48 2067.7 2344.45 2067.7Z"/><path d="M2396.52 2041.67 2422.55 2041.67 2422.55 2067.7 2396.52 2067.7Z"/><path d="M2422.55 2041.67 2448.58 2041.67 2448.58 2067.7 2422.55 2067.7Z"/><path d="M2500.64 2041.67 2526.67 2041.67 2526.67 2067.7 2500.64 2067.7Z"/><path d="M2578.73 2041.67 2604.76 2041.67 2604.76 2067.7 2578.73 2067.7Z"/><path d="M2604.76 2041.67 2630.79 2041.67 2630.79 2067.7 2604.76 2067.7Z"/><path d="M2656.82 2041.67 2682.85 2041.67 2682.85 2067.7 2656.82 2067.7Z"/><path d="M2708.88 2041.67 2734.91 2041.67 2734.91 2067.7 2708.88 2067.7Z"/><path d="M2760.94 2041.67 2786.97 2041.67 2786.97 2067.7 2760.94 2067.7Z"/><path d="M1954 2067.7 1980.03 2067.7 1980.03 2093.73 1954 2093.73Z"/><path d="M2006.06 2067.7 2032.09 2067.7 2032.09 2093.73 2006.06 2093.73Z"/><path d="M2032.09 2067.7 2058.12 2067.7 2058.12 2093.73 2032.09 2093.73Z"/><path d="M2058.12 2067.7 2084.15 2067.7 2084.15 2093.73 2058.12 2093.73Z"/><path d="M2136.21 2067.7 2162.24 2067.7 2162.24 2093.73 2136.21 2093.73Z"/><path d="M2162.24 2067.7 2188.27 2067.7 2188.27 2093.73 2162.24 2093.73Z"/><path d="M2188.27 2067.7 2214.3 2067.7 2214.3 2093.73 2188.27 2093.73Z"/><path d="M2266.36 2067.7 2292.39 2067.7 2292.39 2093.73 2266.36 2093.73Z"/><path d="M2292.39 2067.7 2318.42 2067.7 2318.42 2093.73 2292.39 2093.73Z"/><path d="M2370.48 2067.7 2396.52 2067.7 2396.52 2093.73 2370.48 2093.73Z"/><path d="M2500.64 2067.7 2526.67 2067.7 2526.67 2093.73 2500.64 2093.73Z"/><path d="M2552.7 2067.7 2578.73 2067.7 2578.73 2093.73 2552.7 2093.73Z"/><path d="M2708.88 2067.7 2734.91 2067.7 2734.91 2093.73 2708.88 2093.73Z"/><path d="M2734.91 2067.7 2760.94 2067.7 2760.94 2093.73 2734.91 2093.73Z"/><path d="M1954 2093.73 1980.03 2093.73 1980.03 2119.76 1954 2119.76Z"/><path d="M2006.06 2093.73 2032.09 2093.73 2032.09 2119.76 2006.06 2119.76Z"/><path d="M2032.09 2093.73 2058.12 2093.73 2058.12 2119.76 2032.09 2119.76Z"/><path d="M2110.18 2093.73 2136.21 2093.73 2136.21 2119.76 2110.18 2119.76Z"/><path d="M2188.27 2093.73 2214.3 2093.73 2214.3 2119.76 2188.27 2119.76Z"/><path d="M2214.3 2093.73 2240.33 2093.73 2240.33 2119.76 2214.3 2119.76Z"/><path d="M2266.36 2093.73 2292.39 2093.73 2292.39 2119.76 2266.36 2119.76Z"/><path d="M2318.42 2093.73 2344.45 2093.73 2344.45 2119.76 2318.42 2119.76Z"/><path d="M2344.45 2093.73 2370.48 2093.73 2370.48 2119.76 2344.45 2119.76Z"/><path d="M2370.48 2093.73 2396.52 2093.73 2396.52 2119.76 2370.48 2119.76Z"/><path d="M2396.52 2093.73 2422.55 2093.73 2422.55 2119.76 2396.52 2119.76Z"/><path d="M2422.55 2093.73 2448.58 2093.73 2448.58 2119.76 2422.55 2119.76Z"/><path d="M2474.61 2093.73 2500.64 2093.73 2500.64 2119.76 2474.61 2119.76Z"/><path d="M2552.7 2093.73 2578.73 2093.73 2578.73 2119.76 2552.7 2119.76Z"/><path d="M2578.73 2093.73 2604.76 2093.73 2604.76 2119.76 2578.73 2119.76Z"/><path d="M2604.76 2093.73 2630.79 2093.73 2630.79 2119.76 2604.76 2119.76Z"/><path d="M2630.79 2093.73 2656.82 2093.73 2656.82 2119.76 2630.79 2119.76Z"/><path d="M2656.82 2093.73 2682.85 2093.73 2682.85 2119.76 2656.82 2119.76Z"/><path d="M2682.85 2093.73 2708.88 2093.73 2708.88 2119.76 2682.85 2119.76Z"/><path d="M2708.88 2093.73 2734.91 2093.73 2734.91 2119.76 2708.88 2119.76Z"/><path d="M2786.97 2093.73 2813 2093.73 2813 2119.76 2786.97 2119.76Z"/><path d="M2162.24 2119.76 2188.27 2119.76 2188.27 2145.79 2162.24 2145.79Z"/><path d="M2188.27 2119.76 2214.3 2119.76 2214.3 2145.79 2188.27 2145.79Z"/><path d="M2448.58 2119.76 2474.61 2119.76 2474.61 2145.79 2448.58 2145.79Z"/><path d="M2500.64 2119.76 2526.67 2119.76 2526.67 2145.79 2500.64 2145.79Z"/><path d="M2526.67 2119.76 2552.7 2119.76 2552.7 2145.79 2526.67 2145.79Z"/><path d="M2578.73 2119.76 2604.76 2119.76 2604.76 2145.79 2578.73 2145.79Z"/><path d="M2682.85 2119.76 2708.88 2119.76 2708.88 2145.79 2682.85 2145.79Z"/><path d="M2734.91 2119.76 2760.94 2119.76 2760.94 2145.79 2734.91 2145.79Z"/><path d="M2786.97 2119.76 2813 2119.76 2813 2145.79 2786.97 2145.79Z"/><path d="M1954 2145.79 1980.03 2145.79 1980.03 2171.82 1954 2171.82Z"/><path d="M1980.03 2145.79 2006.06 2145.79 2006.06 2171.82 1980.03 2171.82Z"/><path d="M2006.06 2145.79 2032.09 2145.79 2032.09 2171.82 2006.06 2171.82Z"/><path d="M2032.09 2145.79 2058.12 2145.79 2058.12 2171.82 2032.09 2171.82Z"/><path d="M2058.12 2145.79 2084.15 2145.79 2084.15 2171.82 2058.12 2171.82Z"/><path d="M2084.15 2145.79 2110.18 2145.79 2110.18 2171.82 2084.15 2171.82Z"/><path d="M2110.18 2145.79 2136.21 2145.79 2136.21 2171.82 2110.18 2171.82Z"/><path d="M2162.24 2145.79 2188.27 2145.79 2188.27 2171.82 2162.24 2171.82Z"/><path d="M2214.3 2145.79 2240.33 2145.79 2240.33 2171.82 2214.3 2171.82Z"/><path d="M2240.33 2145.79 2266.36 2145.79 2266.36 2171.82 2240.33 2171.82Z"/><path d="M2266.36 2145.79 2292.39 2145.79 2292.39 2171.82 2266.36 2171.82Z"/><path d="M2344.45 2145.79 2370.48 2145.79 2370.48 2171.82 2344.45 2171.82Z"/><path d="M2370.48 2145.79 2396.52 2145.79 2396.52 2171.82 2370.48 2171.82Z"/><path d="M2396.52 2145.79 2422.55 2145.79 2422.55 2171.82 2396.52 2171.82Z"/><path d="M2422.55 2145.79 2448.58 2145.79 2448.58 2171.82 2422.55 2171.82Z"/><path d="M2474.61 2145.79 2500.64 2145.79 2500.64 2171.82 2474.61 2171.82Z"/><path d="M2500.64 2145.79 2526.67 2145.79 2526.67 2171.82 2500.64 2171.82Z"/><path d="M2552.7 2145.79 2578.73 2145.79 2578.73 2171.82 2552.7 2171.82Z"/><path d="M2578.73 2145.79 2604.76 2145.79 2604.76 2171.82 2578.73 2171.82Z"/><path d="M2630.79 2145.79 2656.82 2145.79 2656.82 2171.82 2630.79 2171.82Z"/><path d="M2682.85 2145.79 2708.88 2145.79 2708.88 2171.82 2682.85 2171.82Z"/><path d="M2708.88 2145.79 2734.91 2145.79 2734.91 2171.82 2708.88 2171.82Z"/><path d="M2734.91 2145.79 2760.94 2145.79 2760.94 2171.82 2734.91 2171.82Z"/><path d="M2760.94 2145.79 2786.97 2145.79 2786.97 2171.82 2760.94 2171.82Z"/><path d="M1954 2171.82 1980.03 2171.82 1980.03 2197.85 1954 2197.85Z"/><path d="M2110.18 2171.82 2136.21 2171.82 2136.21 2197.85 2110.18 2197.85Z"/><path d="M2188.27 2171.82 2214.3 2171.82 2214.3 2197.85 2188.27 2197.85Z"/><path d="M2214.3 2171.82 2240.33 2171.82 2240.33 2197.85 2214.3 2197.85Z"/><path d="M2240.33 2171.82 2266.36 2171.82 2266.36 2197.85 2240.33 2197.85Z"/><path d="M2318.42 2171.82 2344.45 2171.82 2344.45 2197.85 2318.42 2197.85Z"/><path d="M2344.45 2171.82 2370.48 2171.82 2370.48 2197.85 2344.45 2197.85Z"/><path d="M2422.55 2171.82 2448.58 2171.82 2448.58 2197.85 2422.55 2197.85Z"/><path d="M2500.64 2171.82 2526.67 2171.82 2526.67 2197.85 2500.64 2197.85Z"/><path d="M2526.67 2171.82 2552.7 2171.82 2552.7 2197.85 2526.67 2197.85Z"/><path d="M2578.73 2171.82 2604.76 2171.82 2604.76 2197.85 2578.73 2197.85Z"/><path d="M2682.85 2171.82 2708.88 2171.82 2708.88 2197.85 2682.85 2197.85Z"/><path d="M2708.88 2171.82 2734.91 2171.82 2734.91 2197.85 2708.88 2197.85Z"/><path d="M2734.91 2171.82 2760.94 2171.82 2760.94 2197.85 2734.91 2197.85Z"/><path d="M2786.97 2171.82 2813 2171.82 2813 2197.85 2786.97 2197.85Z"/><path d="M1954 2197.85 1980.03 2197.85 1980.03 2223.88 1954 2223.88Z"/><path d="M2006.06 2197.85 2032.09 2197.85 2032.09 2223.88 2006.06 2223.88Z"/><path d="M2032.09 2197.85 2058.12 2197.85 2058.12 2223.88 2032.09 2223.88Z"/><path d="M2058.12 2197.85 2084.15 2197.85 2084.15 2223.88 2058.12 2223.88Z"/><path d="M2110.18 2197.85 2136.21 2197.85 2136.21 2223.88 2110.18 2223.88Z"/><path d="M2162.24 2197.85 2188.27 2197.85 2188.27 2223.88 2162.24 2223.88Z"/><path d="M2214.3 2197.85 2240.33 2197.85 2240.33 2223.88 2214.3 2223.88Z"/><path d="M2240.33 2197.85 2266.36 2197.85 2266.36 2223.88 2240.33 2223.88Z"/><path d="M2370.48 2197.85 2396.52 2197.85 2396.52 2223.88 2370.48 2223.88Z"/><path d="M2396.52 2197.85 2422.55 2197.85 2422.55 2223.88 2396.52 2223.88Z"/><path d="M2422.55 2197.85 2448.58 2197.85 2448.58 2223.88 2422.55 2223.88Z"/><path d="M2474.61 2197.85 2500.64 2197.85 2500.64 2223.88 2474.61 2223.88Z"/><path d="M2578.73 2197.85 2604.76 2197.85 2604.76 2223.88 2578.73 2223.88Z"/><path d="M2604.76 2197.85 2630.79 2197.85 2630.79 2223.88 2604.76 2223.88Z"/><path d="M2630.79 2197.85 2656.82 2197.85 2656.82 2223.88 2630.79 2223.88Z"/><path d="M2656.82 2197.85 2682.85 2197.85 2682.85 2223.88 2656.82 2223.88Z"/><path d="M2682.85 2197.85 2708.88 2197.85 2708.88 2223.88 2682.85 2223.88Z"/><path d="M2708.88 2197.85 2734.91 2197.85 2734.91 2223.88 2708.88 2223.88Z"/><path d="M2786.97 2197.85 2813 2197.85 2813 2223.88 2786.97 2223.88Z"/><path d="M1954 2223.88 1980.03 2223.88 1980.03 2249.91 1954 2249.91Z"/><path d="M2006.06 2223.88 2032.09 2223.88 2032.09 2249.91 2006.06 2249.91Z"/><path d="M2032.09 2223.88 2058.12 2223.88 2058.12 2249.91 2032.09 2249.91Z"/><path d="M2058.12 2223.88 2084.15 2223.88 2084.15 2249.91 2058.12 2249.91Z"/><path d="M2110.18 2223.88 2136.21 2223.88 2136.21 2249.91 2110.18 2249.91Z"/><path d="M2162.24 2223.88 2188.27 2223.88 2188.27 2249.91 2162.24 2249.91Z"/><path d="M2214.3 2223.88 2240.33 2223.88 2240.33 2249.91 2214.3 2249.91Z"/><path d="M2266.36 2223.88 2292.39 2223.88 2292.39 2249.91 2266.36 2249.91Z"/><path d="M2292.39 2223.88 2318.42 2223.88 2318.42 2249.91 2292.39 2249.91Z"/><path d="M2318.42 2223.88 2344.45 2223.88 2344.45 2249.91 2318.42 2249.91Z"/><path d="M2448.58 2223.88 2474.61 2223.88 2474.61 2249.91 2448.58 2249.91Z"/><path d="M2500.64 2223.88 2526.67 2223.88 2526.67 2249.91 2500.64 2249.91Z"/><path d="M2526.67 2223.88 2552.7 2223.88 2552.7 2249.91 2526.67 2249.91Z"/><path d="M2578.73 2223.88 2604.76 2223.88 2604.76 2249.91 2578.73 2249.91Z"/><path d="M2604.76 2223.88 2630.79 2223.88 2630.79 2249.91 2604.76 2249.91Z"/><path d="M2682.85 2223.88 2708.88 2223.88 2708.88 2249.91 2682.85 2249.91Z"/><path d="M2734.91 2223.88 2760.94 2223.88 2760.94 2249.91 2734.91 2249.91Z"/><path d="M2760.94 2223.88 2786.97 2223.88 2786.97 2249.91 2760.94 2249.91Z"/><path d="M2786.97 2223.88 2813 2223.88 2813 2249.91 2786.97 2249.91Z"/><path d="M1954 2249.91 1980.03 2249.91 1980.03 2275.94 1954 2275.94Z"/><path d="M2006.06 2249.91 2032.09 2249.91 2032.09 2275.94 2006.06 2275.94Z"/><path d="M2032.09 2249.91 2058.12 2249.91 2058.12 2275.94 2032.09 2275.94Z"/><path d="M2058.12 2249.91 2084.15 2249.91 2084.15 2275.94 2058.12 2275.94Z"/><path d="M2110.18 2249.91 2136.21 2249.91 2136.21 2275.94 2110.18 2275.94Z"/><path d="M2162.24 2249.91 2188.27 2249.91 2188.27 2275.94 2162.24 2275.94Z"/><path d="M2292.39 2249.91 2318.42 2249.91 2318.42 2275.94 2292.39 2275.94Z"/><path d="M2318.42 2249.91 2344.45 2249.91 2344.45 2275.94 2318.42 2275.94Z"/><path d="M2344.45 2249.91 2370.48 2249.91 2370.48 2275.94 2344.45 2275.94Z"/><path d="M2370.48 2249.91 2396.52 2249.91 2396.52 2275.94 2370.48 2275.94Z"/><path d="M2396.52 2249.91 2422.55 2249.91 2422.55 2275.94 2396.52 2275.94Z"/><path d="M2422.55 2249.91 2448.58 2249.91 2448.58 2275.94 2422.55 2275.94Z"/><path d="M2474.61 2249.91 2500.64 2249.91 2500.64 2275.94 2474.61 2275.94Z"/><path d="M2500.64 2249.91 2526.67 2249.91 2526.67 2275.94 2500.64 2275.94Z"/><path d="M2552.7 2249.91 2578.73 2249.91 2578.73 2275.94 2552.7 2275.94Z"/><path d="M2630.79 2249.91 2656.82 2249.91 2656.82 2275.94 2630.79 2275.94Z"/><path d="M1954 2275.94 1980.03 2275.94 1980.03 2301.97 1954 2301.97Z"/><path d="M2110.18 2275.94 2136.21 2275.94 2136.21 2301.97 2110.18 2301.97Z"/><path d="M2162.24 2275.94 2188.27 2275.94 2188.27 2301.97 2162.24 2301.97Z"/><path d="M2266.36 2275.94 2292.39 2275.94 2292.39 2301.97 2266.36 2301.97Z"/><path d="M2292.39 2275.94 2318.42 2275.94 2318.42 2301.97 2292.39 2301.97Z"/><path d="M2344.45 2275.94 2370.48 2275.94 2370.48 2301.97 2344.45 2301.97Z"/><path d="M2370.48 2275.94 2396.52 2275.94 2396.52 2301.97 2370.48 2301.97Z"/><path d="M2422.55 2275.94 2448.58 2275.94 2448.58 2301.97 2422.55 2301.97Z"/><path d="M2500.64 2275.94 2526.67 2275.94 2526.67 2301.97 2500.64 2301.97Z"/><path d="M2656.82 2275.94 2682.85 2275.94 2682.85 2301.97 2656.82 2301.97Z"/><path d="M2682.85 2275.94 2708.88 2275.94 2708.88 2301.97 2682.85 2301.97Z"/><path d="M2734.91 2275.94 2760.94 2275.94 2760.94 2301.97 2734.91 2301.97Z"/><path d="M1954 2301.97 1980.03 2301.97 1980.03 2328 1954 2328Z"/><path d="M1980.03 2301.97 2006.06 2301.97 2006.06 2328 1980.03 2328Z"/><path d="M2006.06 2301.97 2032.09 2301.97 2032.09 2328 2006.06 2328Z"/><path d="M2032.09 2301.97 2058.12 2301.97 2058.12 2328 2032.09 2328Z"/><path d="M2058.12 2301.97 2084.15 2301.97 2084.15 2328 2058.12 2328Z"/><path d="M2084.15 2301.97 2110.18 2301.97 2110.18 2328 2084.15 2328Z"/><path d="M2110.18 2301.97 2136.21 2301.97 2136.21 2328 2110.18 2328Z"/><path d="M2162.24 2301.97 2188.27 2301.97 2188.27 2328 2162.24 2328Z"/><path d="M2266.36 2301.97 2292.39 2301.97 2292.39 2328 2266.36 2328Z"/><path d="M2318.42 2301.97 2344.45 2301.97 2344.45 2328 2318.42 2328Z"/><path d="M2344.45 2301.97 2370.48 2301.97 2370.48 2328 2344.45 2328Z"/><path d="M2370.48 2301.97 2396.52 2301.97 2396.52 2328 2370.48 2328Z"/><path d="M2396.52 2301.97 2422.55 2301.97 2422.55 2328 2396.52 2328Z"/><path d="M2422.55 2301.97 2448.58 2301.97 2448.58 2328 2422.55 2328Z"/><path d="M2474.61 2301.97 2500.64 2301.97 2500.64 2328 2474.61 2328Z"/><path d="M2552.7 2301.97 2578.73 2301.97 2578.73 2328 2552.7 2328Z"/><path d="M2578.73 2301.97 2604.76 2301.97 2604.76 2328 2578.73 2328Z"/><path d="M2604.76 2301.97 2630.79 2301.97 2630.79 2328 2604.76 2328Z"/><path d="M2682.85 2301.97 2708.88 2301.97 2708.88 2328 2682.85 2328Z"/><path d="M2760.94 2301.97 2786.97 2301.97 2786.97 2328 2760.94 2328Z"/></g></g></g><text fill="#FFFFFF" font-family="Arial,Arial_MSFontService,sans-serif" font-weight="700" font-size="128" transform="matrix(1 0 0 1 1918.35 1345)">1716 9541 3441</text><g clip-path="url(#clip4)"><g clip-path="url(#clip5)"><g clip-path="url(#clip6)"><path d="M97.8757 71.4062 83.102 71.4062C78.793 71.4062 73.099 74.484 71.5601 78.6391L73.099 70.7906 54.7858 70.7906 46.7834 115.881 64.9427 115.881 70.0211 87.411 89.5655 87.411C89.5655 87.411 87.1032 101.569 86.026 107.879 84.9487 114.188 89.2577 115.727 91.4122 115.727L100.954 115.727 107.109 80.6397C106.34 75.4074 102.954 71.4062 97.8757 71.4062" fill="#FFFFFF" transform="matrix(1 0 0 1.00466 2528 994.055)"/><path d="M41.7049 70.6367 38.3193 90.0272 52.1696 70.6367Z" fill="#FFFFFF" transform="matrix(1 0 0 1.00466 2528 994.055)"/><path d="M63.2499 0 2.61617 0 0 14.9276 21.2372 14.9276 12.6192 63.096 30.9324 63.096 39.5504 14.9276 60.6337 14.9276Z" fill="#FFFFFF" transform="matrix(1 0 0 1.00466 2528 994.055)"/><path d="M75.8691 48.3223 78.4852 33.2408 62.1726 33.2408 59.5564 48.3223 75.8691 48.3223ZM50.169 63.096C45.0905 63.096 41.7049 58.9409 42.6283 54.0163L47.245 27.7007C48.1684 22.6222 52.9391 18.621 58.0175 18.621L87.7188 18.621C92.7972 18.621 96.1829 22.7761 95.2595 27.7007L90.6428 54.0163C89.7194 59.0948 84.9487 63.096 79.8703 63.096L50.169 63.096Z" fill="#FFFFFF" transform="matrix(1 0 0 1.00466 2528 994.055)"/><path d="M169.897 48.3223 172.514 33.2408 196.059 33.2408 198.675 18.4671 168.359 18.4671C163.28 18.4671 158.509 22.6222 157.586 27.5468L152.969 53.8624C152.046 58.9409 155.432 62.9421 160.51 62.9421L189.903 62.9421 192.52 48.1684 169.897 48.1684Z" fill="#FFFFFF" transform="matrix(1 0 0 1.00466 2528 994.055)"/><path d="M132.809 48.3223 112.957 48.3223 118.19 18.4671 102.339 18.4671 96.029 54.0163C95.1056 59.0948 98.4913 63.096 103.57 63.096L119.113 63.096C124.191 63.096 128.193 60.172 131.424 56.1708 131.424 56.1708 133.271 61.4032 135.733 62.4804 138.349 63.7115 146.044 63.4038 146.044 63.4038L154.047 18.3132 138.042 18.3132 132.809 48.3223Z" fill="#FFFFFF" transform="matrix(1 0 0 1.00466 2528 994.055)"/><path d="M247.305 18.7749 232.532 18.7749C228.223 18.7749 223.914 21.8528 222.375 26.0079L226.53 1.53893 209.91 1.53893 198.983 63.096 215.757 63.096 220.836 34.6258 238.995 34.6258C238.995 34.6258 236.533 48.784 235.456 55.0936 234.378 61.4032 238.687 62.9421 240.688 62.9421L248.844 62.9421 255 27.8546C255.77 22.7761 252.384 18.7749 247.305 18.7749" fill="#FFFFFF" transform="matrix(1 0 0 1.00466 2528 994.055)"/><path d="M187.749 130.809C180.978 130.809 176.515 125.269 177.592 118.497L183.902 83.102C185.133 76.3307 191.596 70.7906 198.368 70.7906L236.225 70.7906C242.996 70.7906 247.613 76.3307 246.382 83.102L240.072 118.497C238.841 125.269 232.378 130.809 225.607 130.809L187.749 130.809ZM222.99 114.188 227.761 87.2571 200.984 87.2571 196.213 114.188 222.99 114.188Z" fill="#FFFFFF" transform="matrix(1 0 0 1.00466 2528 994.055)"/><path d="M151.123 114.188 124.345 114.188 129.116 87.2571 172.668 87.2571 175.591 70.6367 126.5 70.6367C119.728 70.6367 113.265 76.1768 112.034 82.9481L105.724 118.343C104.493 125.115 109.11 130.655 115.881 130.655L153.739 130.655C160.51 130.655 166.973 125.115 168.205 118.343L172.052 96.6446 154.2 96.6446 151.123 114.188Z" fill="#FFFFFF" transform="matrix(1 0 0 1.00466 2528 994.055)"/><path d="M124.345 159.125 106.955 194.982 95.8751 194.982 94.4901 173.283 84.0254 194.982 72.9451 194.982 70.7906 159.125 78.6391 159.125 80.0242 187.287 93.5667 159.125 101.569 159.125 102.954 187.287 116.497 159.125Z" fill="#F8D704" transform="matrix(1 0 0 1.00466 2528 994.055)"/><path d="M157.278 194.982 149.584 194.982 157.124 159.125 164.819 159.125Z" fill="#F8D704" transform="matrix(1 0 0 1.00466 2528 994.055)"/><path d="M169.897 194.982 162.203 194.982 169.744 159.125 177.438 159.125Z" fill="#F8D704" transform="matrix(1 0 0 1.00466 2528 994.055)"/><path d="M222.99 194.982 216.835 194.982C213.911 194.982 211.91 194.674 210.833 194.212 209.756 193.597 209.14 192.52 209.14 190.827 209.14 189.903 209.294 188.826 209.602 187.441L215.604 159.125 223.298 159.125 221.298 168.051 228.684 168.051 227.299 174.514 220.066 174.514 217.912 184.825C217.758 185.902 217.604 186.518 217.604 186.826 217.604 187.595 217.758 188.057 218.374 188.211 218.835 188.365 219.759 188.518 221.298 188.518L224.529 188.518 222.99 194.982Z" fill="#F8D704" transform="matrix(1 0 0 1.00466 2528 994.055)"/><path d="M66.0199 168.82C64.9427 168.205 62.9421 167.897 60.0181 167.897L49.0917 167.897C46.0139 167.897 43.5516 168.512 41.8588 169.744 40.166 170.975 39.0887 172.975 38.4732 175.591L36.0109 187.287C35.857 188.057 35.7031 188.672 35.7031 189.134 35.5492 189.75 35.5492 190.211 35.5492 190.673 35.5492 191.442 35.7031 192.212 35.857 192.674 36.1648 193.135 36.4725 193.597 37.0881 193.905 37.7037 194.212 38.4732 194.52 39.3965 194.674 40.4738 194.828 41.7049 194.828 43.0899 194.828L61.7109 194.828 63.096 188.365 47.5528 188.365C46.1678 188.365 45.0905 188.211 44.6289 188.057 44.1672 187.903 43.8594 187.441 43.8594 186.672 43.8594 186.21 44.0133 185.441 44.1672 184.671L44.1672 184.671 47.3989 184.671 47.3989 184.671 65.2505 184.671 67.2511 175.591C67.5589 174.206 67.7128 173.129 67.7128 172.206 67.7128 170.513 67.0972 169.436 66.0199 168.82M59.2487 178.208 50.6307 178.208 45.5522 178.208C45.7061 177.438 45.86 176.669 46.1678 176.207 46.3217 175.745 46.6295 175.284 47.0911 175.13 47.3989 174.822 47.8606 174.668 48.4762 174.668 49.0917 174.668 49.7073 174.514 50.6307 174.514L56.7864 174.514C58.787 174.514 59.7103 175.13 59.7103 176.361 59.5564 176.361 59.4025 177.13 59.2487 178.208" fill="#F8D704" transform="matrix(1 0 0 1.00466 2528 994.055)"/><path d="M148.506 170.051C148.199 169.59 147.737 169.128 147.121 168.82 146.506 168.512 145.736 168.359 144.813 168.205 143.89 168.051 142.658 168.051 141.12 168.051L122.499 168.051 121.113 174.514 136.964 174.514C138.349 174.514 139.427 174.668 139.888 174.822 140.35 174.976 140.658 175.438 140.658 176.207 140.658 176.515 140.504 177.284 140.35 178.208L134.194 178.208 128.193 178.208C126.346 178.208 124.961 178.362 123.73 178.515 122.499 178.669 121.575 179.131 120.806 179.593 120.036 180.054 119.421 180.824 118.959 181.901 118.497 182.978 118.036 184.209 117.728 185.902L117.42 187.441C117.112 188.672 116.958 189.903 116.958 190.827 116.958 191.75 117.112 192.366 117.42 192.981 117.728 193.597 118.19 193.905 118.805 194.212 119.421 194.52 120.19 194.674 121.113 194.828 122.037 194.982 123.268 194.982 124.807 194.982L144.659 194.982 148.814 175.591C149.122 174.36 149.276 173.129 149.276 172.206 148.814 171.436 148.814 170.667 148.506 170.051M126.5 188.518C125.422 188.518 124.807 188.057 124.807 187.133 124.807 186.518 125.115 186.056 125.422 185.594 125.884 185.133 126.5 184.825 127.269 184.825L135.579 184.825 135.579 184.825 138.811 184.825 138.042 188.518 126.5 188.518Z" fill="#F8D704" transform="matrix(1 0 0 1.00466 2528 994.055)"/><path d="M206.216 168.82C205.139 168.205 203.138 167.897 200.214 167.897L189.288 167.897C186.056 167.897 183.748 168.512 182.055 169.744 180.362 170.975 179.285 172.975 178.669 175.591L176.207 187.287C176.053 188.057 175.899 188.672 175.899 189.134 175.899 189.75 175.745 190.211 175.745 190.673 175.745 191.442 175.899 192.212 176.053 192.674 176.361 193.135 176.669 193.597 177.284 193.905 177.9 194.212 178.669 194.52 179.593 194.674 180.516 194.828 181.901 194.828 183.286 194.828L201.907 194.828 203.292 188.365 187.595 188.365C186.21 188.365 185.133 188.211 184.671 188.057 184.209 187.903 183.902 187.441 183.902 186.672 183.902 186.21 184.056 185.441 184.209 184.671L184.209 184.671 187.441 184.671 187.441 184.671 205.293 184.671 207.293 175.591C207.601 174.206 207.755 173.129 207.755 172.206 207.909 170.513 207.447 169.436 206.216 168.82M199.445 178.208 191.289 178.208 185.748 178.208C185.902 177.438 186.056 176.669 186.364 176.207 186.518 175.745 186.826 175.284 187.287 175.13 187.595 174.822 188.057 174.668 188.672 174.668 189.288 174.668 189.903 174.514 190.827 174.514L196.983 174.514C198.983 174.514 199.906 175.13 199.906 176.361 199.906 176.361 199.753 177.13 199.445 178.208" fill="#F8D704" transform="matrix(1 0 0 1.00466 2528 994.055)"/></g></g></g><g clip-path="url(#clip7)"><g clip-path="url(#clip8)"><g clip-path="url(#clip9)"><path d="M107.816 0C69.341 0 38.2154 31.1256 38.2154 69.6004L38.2154 139.201 107.816 139.201C146.204 139.201 177.416 108.075 177.416 69.6004 177.416 31.1256 146.204 0 107.816 0Z" fill="#E52561" transform="matrix(1 0 0 1.0044 1971.03 994)"/><path d="M3.54486 195.14C2.5938 195.14 1.7292 194.795 1.03752 194.103 0.34584 193.411 -1.9198e-16 192.547 -1.9198e-16 191.596L-1.9198e-16 161.507C-1.9198e-16 160.556 0.34584 159.692 1.03752 159 1.7292 158.308 2.5938 157.963 3.54486 157.963L13.4878 157.963C17.4649 157.963 20.9233 158.914 23.7765 160.643 26.6297 162.458 28.7047 164.793 30.1746 167.646 31.5579 170.499 32.3361 173.439 32.3361 176.551 32.3361 179.664 31.6444 182.604 30.1746 185.457 28.7912 188.31 26.6297 190.644 23.7765 192.46 20.9233 194.276 17.4649 195.14 13.4878 195.14L3.54486 195.14ZM12.969 188.31C15.4764 188.31 17.6379 187.791 19.4535 186.84 21.2692 185.803 22.6525 184.506 23.6901 182.777 24.7276 181.047 25.1599 178.972 25.1599 176.638 25.1599 174.304 24.6411 172.228 23.6901 170.499 22.6525 168.77 21.2692 167.387 19.4535 166.436 17.6379 165.398 15.3899 164.966 12.969 164.966L7.17619 164.966 7.17619 188.483 12.969 188.483Z" fill="#020102" transform="matrix(1 0 0 1.0044 1971.03 994)"/><path d="M72.2806 195.14C71.3296 195.14 70.465 194.795 69.7733 194.103 69.0816 193.411 68.7358 192.547 68.7358 191.596L68.7358 170.326C68.7358 169.375 69.0816 168.511 69.7733 167.819 70.465 167.127 71.3296 166.781 72.2806 166.781 73.3182 166.781 74.1828 167.127 74.8744 167.819 75.5661 168.511 75.912 169.375 75.912 170.413L75.912 191.682C75.912 192.633 75.5661 193.498 74.8744 194.189 74.1828 194.795 73.3182 195.14 72.2806 195.14ZM72.1942 164.447C71.1567 164.447 70.2056 164.015 69.5139 163.323 68.7358 162.545 68.3899 161.68 68.3899 160.643L68.3899 160.47C68.3899 159.432 68.8222 158.481 69.5139 157.79 70.2921 157.012 71.1567 156.666 72.1942 156.666L72.4536 156.666C73.4911 156.666 74.4421 157.098 75.1338 157.79 75.912 158.568 76.2578 159.432 76.2578 160.47L76.2578 160.643C76.2578 161.68 75.8255 162.631 75.1338 163.323 74.3557 164.101 73.4911 164.447 72.4536 164.447L72.1942 164.447Z" fill="#020102" transform="matrix(1 0 0 1.0044 1971.03 994)"/><path d="M58.8793 166.522C57.9283 166.522 57.0637 166.868 56.372 167.56 55.6803 168.251 55.3345 169.116 55.3345 170.067L55.3345 170.326C55.3345 170.326 55.3345 170.413 55.3345 170.413L55.3345 183.641C55.3345 186.927 52.4813 188.483 49.801 188.483 46.8614 188.483 44.354 187.1 44.354 183.728L44.354 170.153C44.354 169.202 44.0082 168.338 43.3165 167.646 42.6248 166.954 41.7602 166.609 40.8092 166.609 39.8581 166.609 38.9935 166.954 38.3018 167.646 37.6101 168.338 37.2643 169.202 37.2643 170.153L37.2643 184.16C37.2643 186.149 37.6966 187.964 38.4747 189.607 39.2529 191.336 40.4633 192.633 42.0196 193.671 43.5759 194.622 45.3915 195.14 47.4666 195.14 49.6281 195.14 51.6167 194.795 53 193.498 54.124 192.46 54.6428 191.163 54.9886 191.163 55.3345 191.163 55.3345 191.336 55.3345 191.509 55.4209 192.547 55.6803 193.325 56.372 194.016 57.0637 194.708 57.9283 195.054 58.8793 195.054 59.8304 195.054 60.695 194.708 61.3867 194.016 62.0783 193.325 62.4242 192.46 62.4242 191.509L62.4242 183.036C62.4242 183.036 62.4242 183.036 62.4242 183.036L62.4242 169.981C62.4242 169.029 62.0783 168.165 61.3867 167.473 60.7814 166.868 59.9168 166.522 58.8793 166.522Z" fill="#020102" transform="matrix(1 0 0 1.0044 1971.03 994)"/><path d="M131.419 195.14C130.641 195.14 129.95 194.967 129.344 194.622 128.739 194.276 128.22 193.844 127.788 193.325L127.788 193.325 111.015 169.981 111.015 191.682C111.015 192.633 110.669 193.498 109.977 194.189 109.286 194.881 108.421 195.227 107.47 195.227 106.519 195.227 105.654 194.881 104.963 194.189 104.271 193.498 103.925 192.633 103.925 191.682L103.925 162.977C103.925 161.767 104.357 160.643 105.222 159.778 106.087 158.914 107.211 158.395 108.421 158.395L109.026 158.395C110.064 158.395 111.534 158.741 112.83 160.383L112.83 160.383 129.517 182.777 129.517 161.94C129.517 160.989 129.863 160.124 130.555 159.432 131.246 158.741 132.111 158.395 133.062 158.395 134.013 158.395 134.878 158.741 135.569 159.432 136.261 160.124 136.607 160.989 136.607 161.94L136.607 190.644C136.607 191.855 136.175 192.979 135.224 193.844 134.359 194.708 133.235 195.14 132.025 195.14L131.419 195.14Z" fill="#E52561" transform="matrix(1 0 0 1.0044 1971.03 994)"/><path d="M203.008 195.14C201.971 195.14 201.106 194.881 200.328 194.276 199.55 193.757 199.031 192.979 198.685 192.114L198.685 192.028 194.449 179.578 190.212 192.114 190.212 192.114C189.866 192.979 189.348 193.671 188.569 194.276 187.791 194.881 186.84 195.14 185.889 195.14 184.852 195.14 183.987 194.881 183.209 194.276 182.431 193.757 181.912 192.979 181.566 192.114L174.131 171.537C173.958 171.105 173.871 170.672 173.871 170.24 173.871 169.289 174.217 168.424 174.995 167.733 175.687 167.041 176.638 166.695 177.675 166.695 178.454 166.695 179.145 166.868 179.751 167.3 180.442 167.733 180.874 168.251 181.134 168.943L185.976 183.901 190.731 169.375C190.99 168.597 191.509 167.905 192.201 167.387 192.892 166.868 193.757 166.609 194.622 166.609 195.486 166.609 196.351 166.868 197.043 167.387 197.734 167.905 198.253 168.511 198.512 169.375L203.268 183.901 208.109 168.943C208.369 168.251 208.801 167.733 209.493 167.3 210.098 166.954 210.79 166.695 211.568 166.695 212.605 166.695 213.47 167.041 214.248 167.733 214.94 168.424 215.372 169.289 215.372 170.24 215.372 170.672 215.286 171.105 215.113 171.537L207.677 192.114C207.418 192.979 206.813 193.671 206.034 194.189 204.91 194.881 203.959 195.14 203.008 195.14Z" fill="#E52561" transform="matrix(1 0 0 1.0044 1971.03 994)"/><path d="M92.2529 195.14C86.7195 195.14 83.6934 192.374 83.6934 187.273L83.6934 173.266 83.434 173.266C82.4829 173.266 81.7048 172.92 81.0996 172.315 80.4943 171.71 80.1485 170.932 80.1485 170.067 80.1485 169.202 80.4943 168.338 81.0996 167.733 81.7048 167.127 82.4829 166.781 83.434 166.781L83.6934 166.781 83.6934 163.15C83.6934 162.113 84.0392 161.248 84.7309 160.556 85.4226 159.865 86.2872 159.519 87.2382 159.519 88.2757 159.519 89.1403 159.865 89.7456 160.556 90.4372 161.248 90.7831 162.113 90.7831 163.064L90.7831 164.015 90.7831 164.101 90.7831 166.781 95.1061 166.781C95.9707 166.781 96.8353 167.127 97.4405 167.733 98.0457 168.338 98.3916 169.116 98.3916 170.067 98.3916 170.932 98.0457 171.71 97.4405 172.315 96.8353 172.92 96.0572 173.266 95.1061 173.266L90.7831 173.266 90.7831 186.927C90.7831 187.964 91.4748 189.088 92.3394 189.175 93.3769 189.261 96.1436 189.088 96.9218 189.521 97.6134 189.866 98.3051 190.731 98.3051 191.682 98.3051 192.892 97.6134 193.93 96.4894 194.622L96.4894 194.622 96.4894 194.622C95.0196 195.227 93.8957 195.14 92.2529 195.14Z" fill="#020102" transform="matrix(1 0 0 1.0044 1971.03 994)"/><path d="M107.816 31.1256C86.5465 31.1256 69.341 48.3312 69.341 69.6004L69.341 108.075 107.816 108.075C129.085 108.075 146.29 90.8695 146.29 69.6004 146.29 48.3312 128.998 31.1256 107.816 31.1256ZM107.816 86.8059 90.6102 86.8059 90.6102 69.6004C90.6102 60.0898 98.3051 52.3948 107.816 52.3948 117.326 52.3948 125.021 60.0898 125.021 69.6004 125.021 79.111 117.24 86.8059 107.816 86.8059Z" fill="#FFFFFF" transform="matrix(1 0 0 1.0044 1971.03 994)"/><path d="M156.839 165.83C148.798 165.83 142.227 172.401 142.227 180.442 142.227 188.483 148.798 195.054 156.839 195.054 164.879 195.054 171.45 188.483 171.45 180.442 171.45 172.401 164.966 165.83 156.839 165.83ZM156.839 188.397C152.516 188.397 148.971 184.852 148.971 180.529 148.971 176.206 152.516 172.661 156.839 172.661 161.162 172.661 164.706 176.206 164.706 180.529 164.706 184.852 161.162 188.397 156.839 188.397Z" fill="#E52561" transform="matrix(1 0 0 1.0044 1971.03 994)"/></g></g></g></g></svg>